<svg xmlns="http://www.w3.org/2000/svg" xmlns:xlink="http://www.w3.org/1999/xlink" id="Capa_1" data-name="Capa 1" viewBox="0 0 325.947 94.72" xmlns:bx="https://boxy-svg.com">
  <defs>
    <style>
      .cls-1, .cls-2 {
        fill: none;
      }

      .cls-3 {
        fill: #c4c4c4;
      }

      .cls-4 {
        fill: #fff;
      }

      .cls-2 {
        stroke: #fff;
        stroke-linecap: round;
        stroke-miterlimit: 10;
        stroke-width: .5px;
      }

      .cls-5 {
        clip-path: url(#clippath);
      }
    </style>
    <clipPath id="clippath">
      <rect class="cls-1" y=".25" width="323.52" height="90.43"></rect>
    </clipPath>
    <linearGradient id="gradient-0" bx:pinned="true">
      <title>deg</title>
    </linearGradient>
    <linearGradient bx:pinned="true" id="color-0">
      <stop style="stop-color: rgb(0, 159, 255);" offset="0"></stop>
      <stop style="stop-color: rgb(255, 0, 38);" offset="1"></stop>
    </linearGradient>
    <linearGradient id="color-0-0" href="#color-0" gradientUnits="userSpaceOnUse" x1="45.1" y1="0.245" x2="45.1" y2="90.685" spreadMethod="reflect" gradientTransform="matrix(-0.007773, -0.99997, 1.043433, -0.008112, -2.188718, 89.534863)"></linearGradient>
  </defs>
  <g class="cls-5">
    <g>
      <path class="cls-4" d="M120.53,54.75v-6.93h19.54c1,0,1.98-.45,2.27-1.08l1.9-4.07h-21.2c-1.38,0-2.51.85-2.51,1.89v-8.57h25.06c1,0,1.98-.46,2.27-1.08l2.13-4.56h-31.58c-3.41,0-5.53,1.77-5.53,4.14v25.94h32.82c1,0,1.98-.46,2.27-1.08l2.09-4.58h-29.53Z" style="fill: rgb(35, 52, 68);"></path>
      <path class="cls-4" d="M319.55,33.07c-2.63-1.82-5.87-2.74-9.74-2.74h-18.32c-3.19,0-5.09,1.6-5.09,3.76v26.33h7.67v-9.98h15.24c4.19,0,7.61-.89,10.24-2.66,2.63-1.81,3.97-4.27,3.97-7.4s-1.34-5.49-3.97-7.31ZM309.15,44.87h-12.56c-1.38,0-2.51.85-2.51,1.89v-10.77h15.23c4.37,0,6.55,1.48,6.55,4.44s-2.24,4.44-6.72,4.44Z" style="fill: rgb(35, 52, 68);"></path>
      <path class="cls-4" d="M255.19,34.01c-1.29-2.74-3.81-4.09-7.45-4.09-3.35,0-6.1,1.39-7.38,4.09l-12.59,26.41h8.14l3.97-8.78h15.64l4.01,8.78h8.13l-12.47-26.41ZM241.32,48.34l5.47-11.97c.17-.38.45-.55.95-.55.45,0,.72.17.9.55l4.53,10.1h-8.59c-1.35.05-2.8.86-3.27,1.87Z" style="fill: rgb(35, 52, 68);"></path>
      <path class="cls-4" d="M206.93,30.33h-6.31v15.28c0,1.7.05,3.99.17,6.86h-.13l-15.77-20.01c-1.36-1.69-3.25-2.56-5.79-2.56-3.84,0-6.44,2.04-6.44,4.95v25.56h8.04v-15.4l-.12-7.29h.12l16.19,20.44c1.35,1.78,3.37,2.65,5.9,2.65,3.49,0,5.86-2,5.86-4.56v-23.97h0c0-1.02-.72-1.95-1.72-1.95Z" style="fill: rgb(35, 52, 68);"></path>
    </g>
    <path class="cls-4" d="M 56.13 20.37 C 56.13 20.26 56.21 20.12 56.3 20.07 L 57.26 19.52 C 57.36 19.47 57.51 19.47 57.61 19.52 L 58.57 20.07 C 58.67 20.12 58.75 20.26 58.75 20.37 L 58.75 21.48 C 58.75 21.59 58.67 21.73 58.57 21.78 L 57.61 22.33 C 57.51 22.38 57.36 22.38 57.26 22.33 L 56.3 21.78 C 56.2 21.73 56.13 21.59 56.13 21.48 L 56.13 20.37 Z M 52.17 19.83 C 52.17 19.94 52.25 20.08 52.34 20.13 L 53.3 20.68 C 53.4 20.74 53.55 20.74 53.65 20.68 L 54.61 20.13 C 54.71 20.08 54.78 19.94 54.78 19.83 L 54.78 18.72 C 54.78 18.61 54.7 18.47 54.61 18.42 L 53.65 17.87 C 53.55 17.82 53.4 17.82 53.3 17.87 L 52.34 18.42 C 52.24 18.48 52.17 18.61 52.17 18.72 L 52.17 19.83 Z M 48 18.82 C 48 18.93 48.08 19.07 48.17 19.12 L 49.13 19.67 C 49.23 19.73 49.38 19.73 49.48 19.67 L 50.44 19.12 C 50.54 19.06 50.61 18.93 50.61 18.82 L 50.61 17.71 C 50.61 17.6 50.53 17.46 50.44 17.41 L 49.48 16.86 C 49.38 16.8 49.23 16.8 49.13 16.86 L 48.17 17.41 C 48.07 17.47 48 17.6 48 17.71 L 48 18.82 Z M 43.73 18.48 C 43.73 18.59 43.81 18.73 43.9 18.78 L 44.86 19.33 C 44.96 19.39 45.11 19.39 45.21 19.33 L 46.17 18.78 C 46.27 18.72 46.35 18.59 46.35 18.48 L 46.35 17.37 C 46.35 17.26 46.27 17.12 46.17 17.07 L 45.21 16.52 C 45.11 16.46 44.96 16.46 44.86 16.52 L 43.9 17.07 C 43.8 17.12 43.73 17.26 43.73 17.37 L 43.73 18.48 Z M 43.73 14.57 C 43.73 14.68 43.81 14.82 43.9 14.87 L 44.86 15.42 C 44.96 15.48 45.11 15.48 45.21 15.42 L 46.17 14.87 C 46.27 14.81 46.35 14.68 46.35 14.57 L 46.35 13.46 C 46.35 13.35 46.27 13.21 46.17 13.16 L 45.21 12.61 C 45.11 12.55 44.96 12.55 44.86 12.61 L 43.9 13.16 C 43.8 13.21 43.73 13.35 43.73 13.46 L 43.73 14.57 Z M 38.84 14.96 C 38.84 15.07 38.92 15.21 39.02 15.26 L 39.98 15.81 C 40.08 15.87 40.23 15.87 40.33 15.81 L 41.29 15.26 C 41.39 15.21 41.47 15.07 41.47 14.96 L 41.47 13.85 C 41.47 13.74 41.39 13.6 41.29 13.55 L 40.33 13 C 40.23 12.94 40.08 12.94 39.98 13 L 39.02 13.55 C 38.92 13.61 38.84 13.74 38.84 13.85 L 38.84 14.96 Z M 39.45 18.82 C 39.45 18.93 39.53 19.07 39.62 19.12 L 40.58 19.67 C 40.68 19.72 40.83 19.72 40.93 19.67 L 41.89 19.12 C 41.99 19.06 42.07 18.93 42.07 18.82 L 42.07 17.71 C 42.07 17.6 41.99 17.46 41.89 17.41 L 40.93 16.86 C 40.83 16.8 40.68 16.8 40.58 16.86 L 39.62 17.41 C 39.52 17.46 39.45 17.6 39.45 17.71 L 39.45 18.82 Z M 34.07 16.09 C 34.07 16.2 34.15 16.34 34.24 16.4 L 35.2 16.95 C 35.3 17.01 35.45 17.01 35.55 16.95 L 36.51 16.4 C 36.61 16.34 36.68 16.21 36.68 16.09 L 36.68 14.98 C 36.68 14.87 36.6 14.73 36.51 14.68 L 35.55 14.13 C 35.45 14.07 35.3 14.07 35.2 14.13 L 34.24 14.68 C 34.14 14.73 34.07 14.87 34.07 14.98 L 34.07 16.09 Z M 32.82 12.21 C 32.82 12.32 32.9 12.46 32.99 12.51 L 33.95 13.06 C 34.04 13.12 34.2 13.12 34.3 13.06 L 35.26 12.51 C 35.36 12.45 35.43 12.32 35.43 12.21 L 35.43 11.1 C 35.43 10.99 35.35 10.85 35.26 10.8 L 34.3 10.25 C 34.2 10.19 34.04 10.19 33.95 10.25 L 32.99 10.8 C 32.89 10.86 32.82 10.99 32.82 11.1 L 32.82 12.21 Z M 27.7 14.34 C 27.7 14.45 27.78 14.59 27.88 14.64 L 28.84 15.19 C 28.94 15.24 29.09 15.24 29.19 15.19 L 30.15 14.64 C 30.25 14.58 30.32 14.45 30.32 14.34 L 30.32 13.23 C 30.32 13.12 30.24 12.98 30.15 12.93 L 29.19 12.38 C 29.09 12.32 28.94 12.32 28.84 12.38 L 27.88 12.93 C 27.78 12.98 27.7 13.12 27.7 13.23 L 27.7 14.34 Z M 22.97 17.25 C 22.97 17.36 23.05 17.5 23.15 17.55 L 24.11 18.1 C 24.21 18.16 24.36 18.16 24.46 18.1 L 25.42 17.55 C 25.52 17.5 25.59 17.36 25.59 17.25 L 25.59 16.14 C 25.59 16.03 25.51 15.89 25.42 15.84 L 24.46 15.29 C 24.36 15.23 24.21 15.23 24.11 15.29 L 23.15 15.84 C 23.05 15.9 22.97 16.03 22.97 16.14 L 22.97 17.25 Z M 20.47 14.16 C 20.47 14.27 20.55 14.41 20.64 14.46 L 21.6 15.01 C 21.7 15.07 21.85 15.07 21.95 15.01 L 22.91 14.46 C 23.01 14.4 23.08 14.27 23.08 14.16 L 23.08 13.05 C 23.08 12.94 23 12.8 22.91 12.75 L 21.95 12.2 C 21.85 12.14 21.7 12.14 21.6 12.2 L 20.64 12.75 C 20.54 12.8 20.47 12.94 20.47 13.05 L 20.47 14.16 Z M 15.81 18.22 C 15.81 18.33 15.89 18.47 15.98 18.52 L 16.94 19.07 C 17.04 19.13 17.19 19.13 17.29 19.07 L 18.25 18.52 C 18.35 18.46 18.42 18.33 18.42 18.22 L 18.42 17.11 C 18.42 17 18.34 16.86 18.25 16.81 L 17.29 16.26 C 17.19 16.2 17.04 16.2 16.94 16.26 L 15.98 16.81 C 15.88 16.87 15.81 17 15.81 17.11 L 15.81 18.22 Z M 18.75 20.86 C 18.75 20.97 18.83 21.11 18.93 21.16 L 19.89 21.71 C 19.99 21.76 20.14 21.76 20.24 21.71 L 21.2 21.16 C 21.3 21.1 21.38 20.97 21.38 20.86 L 21.38 19.75 C 21.38 19.64 21.3 19.5 21.2 19.45 L 20.24 18.9 C 20.14 18.84 19.99 18.84 19.89 18.9 L 18.93 19.45 C 18.83 19.51 18.75 19.64 18.75 19.75 L 18.75 20.86 Z M 15.15 25.1 C 15.15 25.21 15.23 25.35 15.33 25.4 L 16.29 25.95 C 16.39 26.01 16.54 26.01 16.64 25.95 L 17.6 25.4 C 17.7 25.34 17.77 25.21 17.77 25.1 L 17.77 23.99 C 17.77 23.88 17.69 23.74 17.6 23.68 L 16.64 23.13 C 16.54 23.08 16.39 23.08 16.29 23.13 L 15.33 23.68 C 15.23 23.74 15.15 23.87 15.15 23.99 L 15.15 25.1 Z M 11.84 22.96 C 11.84 23.07 11.92 23.21 12.01 23.26 L 12.97 23.81 C 13.07 23.87 13.22 23.87 13.32 23.81 L 14.28 23.26 C 14.38 23.2 14.46 23.07 14.46 22.96 L 14.46 21.85 C 14.46 21.74 14.38 21.6 14.28 21.55 L 13.32 21 C 13.22 20.94 13.07 20.94 12.97 21 L 12.01 21.55 C 11.91 21.61 11.84 21.74 11.84 21.85 L 11.84 22.96 Z M 4.65 26.32 C 4.65 26.43 4.73 26.57 4.83 26.62 L 5.79 27.17 C 5.89 27.23 6.04 27.23 6.14 27.17 L 7.1 26.62 C 7.2 26.56 7.27 26.43 7.27 26.32 L 7.27 25.21 C 7.27 25.1 7.19 24.96 7.1 24.9 L 6.14 24.35 C 6.04 24.29 5.89 24.29 5.79 24.35 L 4.83 24.9 C 4.73 24.96 4.65 25.09 4.65 25.21 L 4.65 26.32 Z M 8.66 28.27 C 8.66 28.38 8.74 28.52 8.84 28.57 L 9.8 29.12 C 9.9 29.18 10.05 29.18 10.15 29.12 L 11.11 28.57 C 11.21 28.51 11.28 28.38 11.28 28.27 L 11.28 27.16 C 11.28 27.05 11.2 26.91 11.11 26.86 L 10.15 26.31 C 10.05 26.25 9.89 26.25 9.8 26.31 L 8.84 26.86 C 8.74 26.92 8.66 27.05 8.66 27.16 L 8.66 28.27 Z M 12.25 29.85 C 12.25 29.96 12.33 30.1 12.42 30.15 L 13.38 30.7 C 13.48 30.75 13.63 30.75 13.73 30.7 L 14.69 30.15 C 14.79 30.1 14.87 29.96 14.87 29.85 L 14.87 28.74 C 14.87 28.63 14.79 28.49 14.69 28.44 L 13.73 27.89 C 13.63 27.83 13.48 27.83 13.38 27.89 L 12.42 28.44 C 12.32 28.5 12.25 28.63 12.25 28.74 L 12.25 29.85 Z M 35.28 19.83 C 35.28 19.94 35.36 20.08 35.46 20.13 L 36.42 20.68 C 36.52 20.73 36.67 20.73 36.77 20.68 L 37.73 20.13 C 37.83 20.07 37.9 19.94 37.9 19.83 L 37.9 18.72 C 37.9 18.61 37.82 18.47 37.73 18.42 L 36.77 17.87 C 36.67 17.81 36.52 17.81 36.42 17.87 L 35.46 18.42 C 35.36 18.47 35.28 18.61 35.28 18.72 L 35.28 19.83 Z M 29.54 17.99 C 29.54 18.1 29.62 18.24 29.71 18.29 L 30.67 18.84 C 30.77 18.9 30.92 18.9 31.02 18.84 L 31.98 18.29 C 32.08 18.23 32.15 18.1 32.15 17.99 L 32.15 16.88 C 32.15 16.77 32.07 16.63 31.98 16.58 L 31.02 16.03 C 30.92 15.97 30.77 15.97 30.67 16.03 L 29.71 16.58 C 29.61 16.63 29.54 16.77 29.54 16.88 L 29.54 17.99 Z M 31.32 21.48 C 31.32 21.59 31.4 21.73 31.5 21.78 L 32.46 22.33 C 32.56 22.38 32.71 22.38 32.81 22.33 L 33.77 21.78 C 33.87 21.73 33.95 21.59 33.95 21.48 L 33.95 20.37 C 33.95 20.26 33.87 20.12 33.77 20.07 L 32.81 19.52 C 32.71 19.47 32.56 19.47 32.46 19.52 L 31.5 20.07 C 31.4 20.12 31.32 20.26 31.32 20.37 L 31.32 21.48 Z M 25.36 20.57 C 25.36 20.68 25.44 20.82 25.53 20.87 L 26.49 21.42 C 26.59 21.48 26.74 21.48 26.84 21.42 L 27.8 20.87 C 27.9 20.81 27.98 20.68 27.98 20.57 L 27.98 19.46 C 27.98 19.35 27.9 19.21 27.8 19.16 L 26.84 18.61 C 26.74 18.55 26.59 18.55 26.49 18.61 L 25.53 19.16 C 25.43 19.21 25.36 19.35 25.36 19.46 L 25.36 20.57 Z M 27.67 23.74 C 27.67 23.85 27.75 23.99 27.84 24.04 L 28.8 24.59 C 28.9 24.65 29.05 24.65 29.15 24.59 L 30.11 24.04 C 30.21 23.98 30.28 23.85 30.28 23.74 L 30.28 22.63 C 30.28 22.52 30.2 22.38 30.11 22.33 L 29.15 21.78 C 29.05 21.73 28.9 21.73 28.8 21.78 L 27.84 22.33 C 27.74 22.39 27.67 22.52 27.67 22.63 L 27.67 23.74 Z M 21.62 23.76 C 21.62 23.87 21.7 24.01 21.79 24.06 L 22.75 24.61 C 22.85 24.67 23 24.67 23.1 24.61 L 24.06 24.06 C 24.16 24.01 24.24 23.87 24.24 23.76 L 24.24 22.65 C 24.24 22.54 24.16 22.4 24.06 22.35 L 23.1 21.8 C 23 21.75 22.85 21.75 22.75 21.8 L 21.79 22.35 C 21.69 22.41 21.62 22.54 21.62 22.65 L 21.62 23.76 Z M 24.41 26.54 C 24.41 26.65 24.49 26.79 24.59 26.84 L 25.55 27.39 C 25.65 27.45 25.8 27.45 25.9 27.39 L 26.86 26.84 C 26.96 26.79 27.03 26.65 27.03 26.54 L 27.03 25.43 C 27.03 25.32 26.95 25.18 26.86 25.13 L 25.9 24.58 C 25.8 24.52 25.65 24.52 25.55 24.58 L 24.59 25.13 C 24.49 25.19 24.41 25.32 24.41 25.43 L 24.41 26.54 Z M 18.44 27.53 C 18.44 27.64 18.52 27.78 18.62 27.83 L 19.58 28.38 C 19.68 28.44 19.83 28.44 19.93 28.38 L 20.89 27.83 C 20.99 27.77 21.07 27.64 21.07 27.53 L 21.07 26.42 C 21.07 26.31 20.99 26.17 20.89 26.12 L 19.93 25.57 C 19.83 25.51 19.68 25.51 19.58 25.57 L 18.62 26.12 C 18.52 26.17 18.44 26.31 18.44 26.42 L 18.44 27.53 Z M 15.88 31.74 C 15.88 31.85 15.96 31.99 16.06 32.04 L 17.02 32.59 C 17.12 32.64 17.27 32.64 17.37 32.59 L 18.33 32.04 C 18.43 31.99 18.5 31.85 18.5 31.74 L 18.5 30.63 C 18.5 30.52 18.42 30.38 18.33 30.33 L 17.37 29.78 C 17.27 29.72 17.12 29.72 17.02 29.78 L 16.06 30.33 C 15.96 30.39 15.88 30.52 15.88 30.63 L 15.88 31.74 Z M 19.38 33.51 C 19.38 33.62 19.46 33.76 19.56 33.81 L 20.52 34.36 C 20.62 34.41 20.77 34.41 20.87 34.36 L 21.83 33.81 C 21.93 33.76 22 33.62 22 33.51 L 22 32.4 C 22 32.29 21.92 32.15 21.83 32.1 L 20.87 31.55 C 20.77 31.49 20.62 31.49 20.52 31.55 L 19.56 32.1 C 19.46 32.16 19.38 32.29 19.38 32.4 L 19.38 33.51 Z M 17.74 37.5 C 17.74 37.61 17.82 37.75 17.92 37.8 L 18.88 38.35 C 18.98 38.4 19.13 38.4 19.23 38.35 L 20.19 37.8 C 20.29 37.74 20.37 37.61 20.37 37.5 L 20.37 36.39 C 20.37 36.28 20.29 36.14 20.19 36.09 L 19.23 35.54 C 19.13 35.48 18.98 35.48 18.88 35.54 L 17.92 36.09 C 17.82 36.14 17.74 36.28 17.74 36.39 L 17.74 37.5 Z M 14 36.3 C 14 36.41 14.08 36.55 14.17 36.6 L 15.13 37.15 C 15.23 37.2 15.38 37.2 15.48 37.15 L 16.44 36.6 C 16.54 36.54 16.61 36.41 16.61 36.3 L 16.61 35.19 C 16.61 35.08 16.53 34.94 16.44 34.89 L 15.48 34.34 C 15.38 34.28 15.23 34.28 15.13 34.34 L 14.17 34.89 C 14.07 34.94 14 35.08 14 35.19 L 14 36.3 Z M 12.85 41.1 C 12.85 41.21 12.93 41.35 13.03 41.4 L 13.99 41.95 C 14.09 42 14.24 42 14.34 41.95 L 15.3 41.4 C 15.4 41.35 15.47 41.21 15.47 41.1 L 15.47 39.99 C 15.47 39.88 15.39 39.74 15.3 39.69 L 14.34 39.14 C 14.24 39.08 14.09 39.08 13.99 39.14 L 13.03 39.69 C 12.93 39.75 12.85 39.88 12.85 39.99 L 12.85 41.1 Z M 8.81 40.43 C 8.81 40.54 8.89 40.68 8.98 40.73 L 9.94 41.28 C 10.04 41.34 10.19 41.34 10.29 41.28 L 11.25 40.73 C 11.34 40.68 11.42 40.54 11.42 40.43 L 11.42 39.32 C 11.42 39.21 11.34 39.07 11.25 39.02 L 10.29 38.47 C 10.19 38.42 10.04 38.42 9.94 38.47 L 8.98 39.02 C 8.88 39.08 8.81 39.21 8.81 39.32 L 8.81 40.43 Z M 4.93 40.03 C 4.93 40.14 5.01 40.28 5.11 40.33 L 6.07 40.88 C 6.17 40.93 6.32 40.93 6.42 40.88 L 7.38 40.33 C 7.48 40.28 7.55 40.14 7.55 40.03 L 7.55 38.92 C 7.55 38.81 7.47 38.67 7.38 38.62 L 6.42 38.07 C 6.32 38.01 6.17 38.01 6.07 38.07 L 5.11 38.62 C 5.01 38.68 4.93 38.81 4.93 38.92 L 4.93 40.03 Z M 0.5 39.47 C 0.5 39.58 0.58 39.72 0.68 39.77 L 1.64 40.32 C 1.74 40.37 1.89 40.37 1.99 40.32 L 2.95 39.77 C 3.05 39.71 3.12 39.58 3.12 39.47 L 3.12 38.36 C 3.12 38.25 3.04 38.11 2.95 38.06 L 1.99 37.51 C 1.89 37.45 1.74 37.45 1.64 37.51 L 0.68 38.06 C 0.58 38.12 0.5 38.25 0.5 38.36 L 0.5 39.47 Z M 10.13 35 C 10.13 35.11 10.21 35.25 10.3 35.3 L 11.26 35.86 C 11.36 35.91 11.51 35.91 11.61 35.86 L 12.57 35.3 C 12.67 35.24 12.75 35.11 12.75 35 L 12.75 33.89 C 12.75 33.78 12.67 33.64 12.57 33.59 L 11.61 33.04 C 11.51 32.98 11.36 32.98 11.26 33.04 L 10.3 33.59 C 10.2 33.65 10.13 33.78 10.13 33.89 L 10.13 35 Z M 6.34 34.01 C 6.34 34.12 6.42 34.26 6.52 34.31 L 7.48 34.86 C 7.58 34.92 7.73 34.92 7.83 34.86 L 8.79 34.31 C 8.89 34.25 8.96 34.12 8.96 34.01 L 8.96 32.9 C 8.96 32.79 8.88 32.65 8.79 32.6 L 7.83 32.05 C 7.73 31.99 7.57 31.99 7.48 32.05 L 6.52 32.6 C 6.42 32.65 6.34 32.79 6.34 32.9 L 6.34 34.01 Z M 2.06 32.73 C 2.06 32.84 2.14 32.98 2.23 33.03 L 3.19 33.58 C 3.29 33.63 3.44 33.63 3.54 33.58 L 4.5 33.03 C 4.6 32.97 4.67 32.84 4.67 32.73 L 4.67 31.62 C 4.67 31.51 4.59 31.37 4.5 31.32 L 3.54 30.76 C 3.44 30.71 3.29 30.71 3.19 30.76 L 2.23 31.32 C 2.13 31.37 2.06 31.51 2.06 31.62 L 2.06 32.73 Z M 16.74 41.7 C 16.74 41.81 16.82 41.95 16.92 42 L 17.88 42.55 C 17.98 42.61 18.13 42.61 18.23 42.55 L 19.19 42 C 19.29 41.94 19.37 41.81 19.37 41.7 L 19.37 40.59 C 19.37 40.48 19.29 40.34 19.19 40.29 L 18.23 39.74 C 18.13 39.68 17.98 39.68 17.88 39.74 L 16.92 40.29 C 16.82 40.34 16.74 40.48 16.74 40.59 L 16.74 41.7 Z M 16.41 46 C 16.41 46.11 16.49 46.25 16.58 46.3 L 17.54 46.85 C 17.64 46.91 17.79 46.91 17.89 46.85 L 18.85 46.3 C 18.95 46.24 19.03 46.11 19.03 46 L 19.03 44.89 C 19.03 44.78 18.95 44.64 18.85 44.59 L 17.89 44.03 C 17.79 43.98 17.64 43.98 17.54 44.03 L 16.58 44.59 C 16.48 44.64 16.41 44.78 16.41 44.89 L 16.41 46 Z M 12.46 46.02 C 12.46 46.13 12.54 46.27 12.64 46.32 L 13.6 46.87 C 13.7 46.93 13.85 46.93 13.95 46.87 L 14.91 46.32 C 15.01 46.26 15.08 46.13 15.08 46.02 L 15.08 44.91 C 15.08 44.8 15 44.66 14.91 44.61 L 13.95 44.06 C 13.85 44.01 13.7 44.01 13.6 44.06 L 12.64 44.61 C 12.54 44.67 12.46 44.8 12.46 44.91 L 12.46 46.02 Z M 8.38 45.99 C 8.38 46.1 8.46 46.24 8.56 46.29 L 9.52 46.84 C 9.62 46.89 9.77 46.89 9.87 46.84 L 10.83 46.29 C 10.93 46.23 11.01 46.1 11.01 45.99 L 11.01 44.88 C 11.01 44.77 10.93 44.63 10.83 44.58 L 9.87 44.03 C 9.77 43.98 9.62 43.98 9.52 44.03 L 8.56 44.58 C 8.46 44.64 8.38 44.77 8.38 44.88 L 8.38 45.99 Z M 4.49 46.24 C 4.49 46.35 4.57 46.49 4.67 46.54 L 5.63 47.09 C 5.73 47.14 5.88 47.14 5.98 47.09 L 6.94 46.54 C 7.04 46.49 7.12 46.35 7.12 46.24 L 7.12 45.13 C 7.12 45.02 7.04 44.88 6.94 44.83 L 5.98 44.28 C 5.88 44.23 5.73 44.23 5.63 44.28 L 4.67 44.83 C 4.57 44.89 4.49 45.02 4.49 45.13 L 4.49 46.24 Z M 0 46.36 C 0 46.47 0.08 46.61 0.17 46.66 L 1.13 47.21 C 1.23 47.27 1.38 47.27 1.48 47.21 L 2.44 46.66 C 2.54 46.6 2.61 46.47 2.61 46.36 L 2.61 45.25 C 2.61 45.14 2.53 45 2.44 44.95 L 1.48 44.4 C 1.38 44.34 1.23 44.34 1.13 44.4 L 0.17 44.95 C 0.07 45 0 45.14 0 45.25 L 0 46.36 Z M 16.74 50.31 C 16.74 50.42 16.82 50.56 16.92 50.61 L 17.88 51.16 C 17.98 51.22 18.13 51.22 18.23 51.16 L 19.19 50.61 C 19.29 50.56 19.37 50.42 19.37 50.31 L 19.37 49.2 C 19.37 49.09 19.29 48.95 19.19 48.9 L 18.23 48.35 C 18.13 48.29 17.98 48.29 17.88 48.35 L 16.92 48.9 C 16.82 48.96 16.74 49.09 16.74 49.2 L 16.74 50.31 Z M 12.85 50.94 C 12.85 51.05 12.93 51.19 13.03 51.24 L 13.99 51.79 C 14.09 51.84 14.24 51.84 14.34 51.79 L 15.3 51.24 C 15.4 51.18 15.48 51.05 15.48 50.94 L 15.48 49.83 C 15.48 49.72 15.4 49.58 15.3 49.53 L 14.34 48.98 C 14.24 48.92 14.09 48.92 13.99 48.98 L 13.03 49.53 C 12.93 49.59 12.85 49.72 12.85 49.83 L 12.85 50.94 Z M 8.81 51.55 C 8.81 51.66 8.89 51.8 8.98 51.85 L 9.94 52.4 C 10.04 52.46 10.19 52.46 10.29 52.4 L 11.25 51.85 C 11.34 51.79 11.42 51.66 11.42 51.55 L 11.42 50.44 C 11.42 50.33 11.34 50.19 11.25 50.14 L 10.29 49.59 C 10.19 49.53 10.04 49.53 9.94 49.59 L 8.98 50.14 C 8.88 50.2 8.81 50.33 8.81 50.44 L 8.81 51.55 Z M 5.01 52.42 C 5.01 52.53 5.09 52.67 5.19 52.72 L 6.15 53.27 C 6.25 53.33 6.4 53.33 6.5 53.27 L 7.46 52.72 C 7.56 52.66 7.64 52.53 7.64 52.42 L 7.64 51.31 C 7.64 51.2 7.56 51.06 7.46 51.01 L 6.5 50.46 C 6.4 50.41 6.25 50.41 6.15 50.46 L 5.19 51.01 C 5.09 51.07 5.01 51.2 5.01 51.31 L 5.01 52.42 Z M 0.58 53.25 C 0.58 53.36 0.66 53.5 0.76 53.55 L 1.72 54.1 C 1.82 54.15 1.97 54.15 2.07 54.1 L 3.03 53.55 C 3.13 53.49 3.21 53.36 3.21 53.25 L 3.21 52.14 C 3.21 52.03 3.13 51.89 3.03 51.84 L 2.07 51.29 C 1.97 51.23 1.82 51.23 1.72 51.29 L 0.76 51.84 C 0.66 51.9 0.58 52.03 0.58 52.14 L 0.58 53.25 Z M 17.74 54.51 C 17.74 54.62 17.82 54.76 17.92 54.81 L 18.88 55.36 C 18.98 55.42 19.13 55.42 19.23 55.36 L 20.19 54.81 C 20.29 54.75 20.37 54.62 20.37 54.51 L 20.37 53.4 C 20.37 53.29 20.29 53.15 20.19 53.1 L 19.23 52.55 C 19.13 52.49 18.98 52.49 18.88 52.55 L 17.92 53.1 C 17.82 53.15 17.74 53.29 17.74 53.4 L 17.74 54.51 Z M 19.38 58.5 C 19.38 58.61 19.46 58.75 19.56 58.8 L 20.52 59.35 C 20.62 59.41 20.77 59.41 20.87 59.35 L 21.83 58.8 C 21.93 58.74 22 58.61 22 58.5 L 22 57.39 C 22 57.28 21.92 57.14 21.83 57.09 L 20.87 56.54 C 20.77 56.48 20.62 56.48 20.52 56.54 L 19.56 57.09 C 19.46 57.14 19.38 57.28 19.38 57.39 L 19.38 58.5 Z M 15.86 60.31 C 15.86 60.42 15.94 60.56 16.04 60.61 L 17 61.16 C 17.1 61.22 17.25 61.22 17.35 61.16 L 18.31 60.61 C 18.41 60.55 18.48 60.42 18.48 60.31 L 18.48 59.2 C 18.48 59.09 18.4 58.95 18.31 58.9 L 17.35 58.35 C 17.25 58.29 17.1 58.29 17 58.35 L 16.04 58.9 C 15.94 58.96 15.86 59.09 15.86 59.2 L 15.86 60.31 Z M 12.21 62.13 C 12.21 62.24 12.29 62.38 12.39 62.43 L 13.35 62.98 C 13.45 63.04 13.6 63.04 13.7 62.98 L 14.66 62.43 C 14.76 62.37 14.83 62.24 14.83 62.13 L 14.83 61.02 C 14.83 60.91 14.75 60.77 14.66 60.72 L 13.7 60.17 C 13.6 60.11 13.45 60.11 13.35 60.17 L 12.39 60.72 C 12.29 60.77 12.21 60.91 12.21 61.02 L 12.21 62.13 Z M 8.87 64.16 C 8.87 64.27 8.95 64.41 9.05 64.46 L 10.01 65.01 C 10.11 65.06 10.26 65.06 10.36 65.01 L 11.32 64.46 C 11.42 64.4 11.49 64.27 11.49 64.16 L 11.49 63.05 C 11.49 62.94 11.41 62.8 11.32 62.75 L 10.36 62.2 C 10.26 62.14 10.11 62.14 10.01 62.2 L 9.05 62.75 C 8.95 62.8 8.87 62.94 8.87 63.05 L 8.87 64.16 Z M 13.98 55.75 C 13.98 55.86 14.06 56 14.15 56.05 L 15.11 56.6 C 15.21 56.66 15.36 56.66 15.46 56.6 L 16.42 56.05 C 16.52 55.99 16.59 55.86 16.59 55.75 L 16.59 54.64 C 16.59 54.53 16.51 54.39 16.42 54.34 L 15.46 53.79 C 15.36 53.73 15.21 53.73 15.11 53.79 L 14.15 54.34 C 14.05 54.39 13.98 54.53 13.98 54.64 L 13.98 55.75 Z M 10.1 56.98 C 10.1 57.09 10.18 57.23 10.28 57.28 L 11.24 57.83 C 11.34 57.89 11.49 57.89 11.59 57.83 L 12.55 57.28 C 12.65 57.22 12.72 57.09 12.72 56.98 L 12.72 55.87 C 12.72 55.76 12.64 55.62 12.55 55.57 L 11.59 55.02 C 11.49 54.97 11.34 54.97 11.24 55.02 L 10.28 55.57 C 10.18 55.63 10.1 55.76 10.1 55.87 L 10.1 56.98 Z M 6.48 58.44 C 6.48 58.55 6.56 58.69 6.65 58.74 L 7.61 59.29 C 7.71 59.34 7.86 59.34 7.96 59.29 L 8.92 58.74 C 9.02 58.69 9.09 58.55 9.09 58.44 L 9.09 57.33 C 9.09 57.22 9.01 57.08 8.92 57.03 L 7.96 56.48 C 7.86 56.42 7.71 56.42 7.61 56.48 L 6.65 57.03 C 6.55 57.09 6.48 57.22 6.48 57.33 L 6.48 58.44 Z M 2.22 59.96 C 2.22 60.07 2.3 60.21 2.4 60.26 L 3.36 60.82 C 3.46 60.87 3.61 60.87 3.71 60.82 L 4.67 60.26 C 4.77 60.21 4.84 60.07 4.84 59.96 L 4.84 58.85 C 4.84 58.74 4.76 58.6 4.67 58.55 L 3.71 58 C 3.61 57.94 3.46 57.94 3.36 58 L 2.4 58.55 C 2.3 58.61 2.22 58.74 2.22 58.85 L 2.22 59.96 Z M 21.62 62.18 C 21.62 62.29 21.7 62.43 21.79 62.48 L 22.75 63.03 C 22.85 63.09 23 63.09 23.1 63.03 L 24.06 62.48 C 24.16 62.43 24.24 62.29 24.24 62.18 L 24.24 61.07 C 24.24 60.96 24.16 60.82 24.06 60.77 L 23.1 60.22 C 23 60.17 22.85 60.17 22.75 60.22 L 21.79 60.77 C 21.69 60.83 21.62 60.96 21.62 61.07 L 21.62 62.18 Z M 18.41 64.53 C 18.41 64.64 18.49 64.78 18.59 64.83 L 19.55 65.38 C 19.65 65.44 19.8 65.44 19.9 65.38 L 20.86 64.83 C 20.96 64.77 21.04 64.64 21.04 64.53 L 21.04 63.42 C 21.04 63.31 20.96 63.17 20.86 63.12 L 19.9 62.57 C 19.8 62.51 19.65 62.51 19.55 62.57 L 18.59 63.12 C 18.49 63.18 18.41 63.31 18.41 63.42 L 18.41 64.53 Z M 15.1 66.89 C 15.1 67 15.18 67.14 15.28 67.19 L 16.24 67.74 C 16.34 67.8 16.49 67.8 16.59 67.74 L 17.55 67.19 C 17.65 67.14 17.72 67 17.72 66.89 L 17.72 65.78 C 17.72 65.67 17.64 65.53 17.55 65.48 L 16.59 64.93 C 16.49 64.87 16.34 64.87 16.24 64.93 L 15.28 65.48 C 15.18 65.54 15.1 65.67 15.1 65.78 L 15.1 66.89 Z M 18.69 71.14 C 18.69 71.25 18.77 71.39 18.87 71.44 L 19.83 71.99 C 19.93 72.04 20.08 72.04 20.18 71.99 L 21.14 71.44 C 21.24 71.38 21.32 71.25 21.32 71.14 L 21.32 70.03 C 21.32 69.92 21.24 69.78 21.14 69.73 L 20.18 69.18 C 20.08 69.12 19.93 69.12 19.83 69.18 L 18.87 69.73 C 18.77 69.79 18.69 69.92 18.69 70.03 L 18.69 71.14 Z M 16.14 74.12 C 16.14 74.23 16.22 74.37 16.32 74.42 L 17.28 74.97 C 17.38 75.03 17.53 75.03 17.63 74.97 L 18.59 74.42 C 18.69 74.37 18.76 74.23 18.76 74.12 L 18.76 73.01 C 18.76 72.9 18.68 72.76 18.59 72.71 L 17.63 72.16 C 17.53 72.11 17.38 72.11 17.28 72.16 L 16.32 72.71 C 16.22 72.77 16.14 72.9 16.14 73.01 L 16.14 74.12 Z M 12.12 69.43 C 12.12 69.54 12.2 69.68 12.29 69.73 L 13.25 70.28 C 13.35 70.33 13.5 70.33 13.6 70.28 L 14.56 69.73 C 14.66 69.67 14.73 69.54 14.73 69.43 L 14.73 68.32 C 14.73 68.21 14.65 68.07 14.56 68.02 L 13.6 67.47 C 13.5 67.41 13.35 67.41 13.25 67.47 L 12.29 68.02 C 12.19 68.07 12.12 68.21 12.12 68.32 L 12.12 69.43 Z M 8.96 71.78 C 8.96 71.9 9.05 72.05 9.15 72.11 L 9.63 72.39 C 9.74 72.45 9.91 72.45 10.02 72.39 L 10.5 72.11 C 10.61 72.05 10.69 71.9 10.69 71.78 L 10.69 71.22 C 10.69 71.1 10.6 70.95 10.5 70.89 L 10.02 70.61 C 9.91 70.55 9.74 70.55 9.63 70.61 L 9.15 70.89 C 9.05 70.95 8.96 71.1 8.96 71.22 L 8.96 71.78 Z M 11.87 75.38 C 11.87 75.5 11.96 75.65 12.06 75.71 L 12.54 75.99 C 12.65 76.05 12.82 76.05 12.92 75.99 L 13.4 75.71 C 13.51 75.65 13.59 75.5 13.59 75.38 L 13.59 74.82 C 13.59 74.7 13.5 74.55 13.4 74.49 L 12.92 74.21 C 12.81 74.15 12.64 74.15 12.54 74.21 L 12.06 74.49 C 11.95 74.55 11.87 74.7 11.87 74.82 L 11.87 75.38 Z M 15.11 78.66 C 15.11 78.78 15.2 78.93 15.3 78.99 L 15.78 79.27 C 15.89 79.33 16.06 79.33 16.16 79.27 L 16.64 78.99 C 16.74 78.93 16.83 78.78 16.83 78.66 L 16.83 78.1 C 16.83 77.98 16.74 77.83 16.64 77.77 L 16.16 77.49 C 16.05 77.43 15.88 77.43 15.78 77.49 L 15.3 77.77 C 15.19 77.83 15.11 77.98 15.11 78.1 L 15.11 78.66 Z M 18.69 81.58 C 18.69 81.7 18.77 81.85 18.88 81.91 L 19.36 82.19 C 19.46 82.25 19.64 82.25 19.74 82.19 L 20.22 81.91 C 20.32 81.85 20.41 81.7 20.41 81.58 L 20.41 81.02 C 20.41 80.9 20.32 80.75 20.22 80.69 L 19.74 80.41 C 19.63 80.35 19.46 80.35 19.36 80.41 L 18.88 80.69 C 18.77 80.75 18.69 80.9 18.69 81.02 L 18.69 81.58 Z M 22.55 84.1 C 22.55 84.22 22.64 84.37 22.74 84.43 L 23.22 84.71 C 23.32 84.77 23.5 84.77 23.6 84.71 L 24.08 84.43 C 24.19 84.37 24.27 84.22 24.27 84.1 L 24.27 83.54 C 24.27 83.42 24.18 83.27 24.08 83.21 L 23.6 82.93 C 23.49 82.87 23.32 82.87 23.22 82.93 L 22.74 83.21 C 22.63 83.27 22.55 83.42 22.55 83.54 L 22.55 84.1 Z M 24.6 80.51 C 24.6 80.63 24.69 80.78 24.79 80.84 L 25.27 81.12 C 25.37 81.18 25.55 81.18 25.66 81.12 L 26.14 80.84 C 26.24 80.78 26.33 80.63 26.33 80.51 L 26.33 79.96 C 26.33 79.84 26.24 79.69 26.14 79.63 L 25.66 79.35 C 25.55 79.29 25.38 79.29 25.27 79.35 L 24.79 79.63 C 24.68 79.69 24.6 79.84 24.6 79.96 L 24.6 80.51 Z M 28.32 82.43 C 28.32 82.55 28.41 82.7 28.51 82.76 L 28.99 83.04 C 29.1 83.1 29.27 83.1 29.37 83.04 L 29.85 82.76 C 29.96 82.7 30.04 82.55 30.04 82.43 L 30.04 81.87 C 30.04 81.75 29.96 81.6 29.85 81.54 L 29.37 81.26 C 29.27 81.2 29.09 81.2 28.99 81.26 L 28.51 81.54 C 28.4 81.6 28.32 81.75 28.32 81.87 L 28.32 82.43 Z M 26.65 86.2 C 26.65 86.32 26.74 86.47 26.84 86.53 L 27.32 86.81 C 27.43 86.87 27.6 86.87 27.7 86.81 L 28.18 86.53 C 28.28 86.47 28.37 86.32 28.37 86.2 L 28.37 85.64 C 28.37 85.52 28.28 85.37 28.18 85.31 L 27.7 85.03 C 27.59 84.97 27.42 84.97 27.32 85.03 L 26.84 85.31 C 26.73 85.37 26.65 85.52 26.65 85.64 L 26.65 86.2 Z M 32.21 83.93 C 32.21 84.05 32.3 84.2 32.4 84.26 L 32.88 84.54 C 32.98 84.6 33.16 84.6 33.26 84.54 L 33.74 84.26 C 33.84 84.2 33.93 84.05 33.93 83.93 L 33.93 83.38 C 33.93 83.26 33.84 83.11 33.74 83.05 L 33.26 82.77 C 33.15 82.71 32.98 82.71 32.88 82.77 L 32.4 83.05 C 32.29 83.11 32.21 83.26 32.21 83.38 L 32.21 83.93 Z M 30.95 87.86 C 30.95 87.98 31.04 88.13 31.14 88.19 L 31.62 88.47 C 31.72 88.53 31.9 88.53 32 88.47 L 32.48 88.19 C 32.59 88.13 32.67 87.98 32.67 87.86 L 32.67 87.3 C 32.67 87.18 32.58 87.03 32.48 86.97 L 32 86.69 C 31.89 86.63 31.72 86.63 31.62 86.69 L 31.14 86.97 C 31.03 87.03 30.95 87.18 30.95 87.3 L 30.95 87.86 Z M 35.39 89.06 C 35.39 89.18 35.48 89.33 35.58 89.39 L 36.06 89.67 C 36.17 89.73 36.34 89.73 36.44 89.67 L 36.92 89.39 C 37.03 89.33 37.11 89.18 37.11 89.06 L 37.11 88.5 C 37.11 88.38 37.02 88.23 36.92 88.17 L 36.44 87.89 C 36.34 87.83 36.16 87.83 36.06 87.89 L 35.58 88.17 C 35.48 88.23 35.39 88.38 35.39 88.5 L 35.39 89.06 Z M 36.24 85.02 C 36.24 85.14 36.33 85.29 36.43 85.35 L 36.91 85.63 C 37.02 85.69 37.19 85.69 37.29 85.63 L 37.77 85.35 C 37.88 85.29 37.96 85.14 37.96 85.02 L 37.96 84.46 C 37.96 84.34 37.87 84.19 37.77 84.13 L 37.29 83.85 C 37.18 83.79 37.01 83.79 36.91 83.85 L 36.43 84.13 C 36.32 84.19 36.24 84.34 36.24 84.46 L 36.24 85.02 Z M 37.09 80.97 C 37.09 81.09 37.18 81.24 37.28 81.3 L 37.76 81.58 C 37.86 81.64 38.04 81.64 38.14 81.58 L 38.62 81.3 C 38.73 81.24 38.81 81.09 38.81 80.97 L 38.81 80.42 C 38.81 80.3 38.73 80.15 38.62 80.09 L 38.14 79.81 C 38.03 79.75 37.86 79.75 37.76 79.81 L 37.28 80.09 C 37.17 80.15 37.09 80.3 37.09 80.42 L 37.09 80.97 Z M 40.8 81.56 C 40.8 81.68 40.89 81.83 40.99 81.89 L 41.47 82.17 C 41.57 82.23 41.75 82.23 41.85 82.17 L 42.33 81.89 C 42.43 81.83 42.52 81.68 42.52 81.56 L 42.52 81.01 C 42.52 80.89 42.43 80.74 42.33 80.68 L 41.85 80.4 C 41.75 80.34 41.57 80.34 41.47 80.4 L 40.99 80.68 C 40.89 80.74 40.8 80.89 40.8 81.01 L 40.8 81.56 Z M 44.53 81.76 C 44.53 81.88 44.61 82.03 44.72 82.09 L 45.2 82.37 C 45.31 82.43 45.48 82.43 45.58 82.37 L 46.06 82.09 C 46.16 82.03 46.25 81.88 46.25 81.76 L 46.25 81.2 C 46.25 81.08 46.16 80.93 46.06 80.87 L 45.58 80.59 C 45.47 80.53 45.3 80.53 45.2 80.59 L 44.72 80.87 C 44.61 80.93 44.53 81.08 44.53 81.2 L 44.53 81.76 Z M 48.27 81.56 C 48.27 81.68 48.36 81.83 48.46 81.89 L 48.94 82.17 C 49.05 82.23 49.22 82.23 49.32 82.17 L 49.8 81.89 C 49.91 81.83 49.99 81.68 49.99 81.56 L 49.99 81.01 C 49.99 80.89 49.9 80.74 49.8 80.68 L 49.32 80.4 C 49.21 80.34 49.04 80.34 48.94 80.4 L 48.46 80.68 C 48.35 80.74 48.27 80.89 48.27 81.01 L 48.27 81.56 Z M 51.96 80.97 C 51.96 81.09 52.05 81.24 52.15 81.3 L 52.63 81.58 C 52.74 81.64 52.91 81.64 53.02 81.58 L 53.5 81.3 C 53.61 81.24 53.69 81.09 53.69 80.97 L 53.69 80.42 C 53.69 80.3 53.6 80.15 53.5 80.09 L 53.02 79.81 C 52.91 79.75 52.74 79.75 52.63 79.81 L 52.15 80.09 C 52.04 80.15 51.96 80.3 51.96 80.42 L 51.96 80.97 Z M 51.11 76.93 C 51.11 77.05 51.2 77.2 51.3 77.26 L 51.78 77.54 C 51.89 77.6 52.06 77.6 52.16 77.54 L 52.64 77.26 C 52.74 77.2 52.83 77.05 52.83 76.93 L 52.83 76.38 C 52.83 76.26 52.74 76.11 52.64 76.05 L 52.16 75.77 C 52.05 75.71 51.88 75.71 51.78 75.77 L 51.3 76.05 C 51.19 76.11 51.11 76.26 51.11 76.38 L 51.11 76.93 Z M 54.31 76.07 C 54.31 76.19 54.4 76.34 54.5 76.4 L 54.98 76.68 C 55.09 76.74 55.26 76.74 55.36 76.68 L 55.84 76.4 C 55.95 76.34 56.03 76.19 56.03 76.07 L 56.03 75.51 C 56.03 75.39 55.94 75.24 55.84 75.18 L 55.36 74.9 C 55.26 74.84 55.08 74.84 54.98 74.9 L 54.5 75.18 C 54.39 75.24 54.31 75.39 54.31 75.51 L 54.31 76.07 Z M 55.58 80 C 55.58 80.12 55.67 80.27 55.77 80.33 L 56.25 80.61 C 56.36 80.67 56.53 80.67 56.63 80.61 L 57.11 80.33 C 57.21 80.27 57.3 80.12 57.3 80 L 57.3 79.45 C 57.3 79.33 57.21 79.18 57.11 79.12 L 56.63 78.84 C 56.52 78.78 56.35 78.78 56.25 78.84 L 55.77 79.12 C 55.66 79.18 55.58 79.33 55.58 79.45 L 55.58 80 Z M 59.07 78.65 C 59.07 78.77 59.16 78.92 59.26 78.98 L 59.74 79.26 C 59.84 79.32 60.02 79.32 60.12 79.26 L 60.6 78.98 C 60.71 78.92 60.79 78.77 60.79 78.65 L 60.79 78.1 C 60.79 77.98 60.7 77.83 60.6 77.77 L 60.12 77.49 C 60.01 77.43 59.84 77.43 59.74 77.49 L 59.26 77.77 C 59.15 77.83 59.07 77.98 59.07 78.1 L 59.07 78.65 Z M 62.41 76.93 C 62.41 77.05 62.5 77.2 62.6 77.26 L 63.08 77.54 C 63.19 77.6 63.36 77.6 63.46 77.54 L 63.94 77.26 C 64.05 77.2 64.13 77.05 64.13 76.93 L 64.13 76.37 C 64.13 76.25 64.04 76.1 63.94 76.04 L 63.46 75.76 C 63.35 75.7 63.18 75.7 63.08 75.76 L 62.6 76.04 C 62.49 76.1 62.41 76.25 62.41 76.37 L 62.41 76.93 Z M 60.35 73.35 C 60.35 73.47 60.44 73.62 60.54 73.68 L 61.02 73.96 C 61.13 74.02 61.3 74.02 61.41 73.96 L 61.89 73.68 C 62 73.62 62.08 73.47 62.08 73.35 L 62.08 72.79 C 62.08 72.67 61.99 72.52 61.89 72.46 L 61.41 72.18 C 61.31 72.12 61.13 72.12 61.02 72.18 L 60.54 72.46 C 60.43 72.52 60.35 72.67 60.35 72.79 L 60.35 73.35 Z M 60.72 68.19 C 60.72 68.31 60.81 68.46 60.91 68.52 L 61.39 68.8 C 61.5 68.86 61.67 68.86 61.78 68.8 L 62.26 68.52 C 62.37 68.46 62.45 68.31 62.45 68.19 L 62.45 67.63 C 62.45 67.51 62.36 67.36 62.26 67.3 L 61.78 67.02 C 61.67 66.96 61.5 66.96 61.39 67.02 L 60.91 67.3 C 60.8 67.36 60.72 67.51 60.72 67.63 L 60.72 68.19 Z M 63.13 71.54 C 63.13 71.66 63.22 71.81 63.32 71.87 L 63.8 72.15 C 63.91 72.21 64.08 72.21 64.18 72.15 L 64.66 71.87 C 64.76 71.81 64.85 71.66 64.85 71.54 L 64.85 70.98 C 64.85 70.86 64.76 70.71 64.66 70.65 L 64.18 70.37 C 64.07 70.31 63.9 70.31 63.8 70.37 L 63.32 70.65 C 63.21 70.71 63.13 70.86 63.13 70.98 L 63.13 71.54 Z M 65.54 74.87 C 65.54 74.99 65.63 75.14 65.73 75.2 L 66.21 75.48 C 66.31 75.54 66.49 75.54 66.59 75.48 L 67.07 75.2 C 67.17 75.14 67.26 74.99 67.26 74.87 L 67.26 74.32 C 67.26 74.2 67.17 74.05 67.07 73.99 L 66.59 73.71 C 66.49 73.65 66.31 73.65 66.21 73.71 L 65.73 73.99 C 65.62 74.05 65.54 74.2 65.54 74.32 L 65.54 74.87 Z M 67.96 78.23 C 67.96 78.35 68.05 78.5 68.15 78.56 L 68.63 78.84 C 68.74 78.9 68.91 78.9 69.01 78.84 L 69.49 78.56 C 69.6 78.5 69.68 78.35 69.68 78.23 L 69.68 77.68 C 69.68 77.56 69.59 77.41 69.49 77.35 L 69.01 77.07 C 68.9 77.01 68.73 77.01 68.63 77.07 L 68.15 77.35 C 68.04 77.41 67.96 77.56 67.96 77.68 L 67.96 78.23 Z M 71.2 75.58 C 71.2 75.7 71.29 75.85 71.39 75.91 L 71.87 76.19 C 71.98 76.25 72.15 76.25 72.25 76.19 L 72.73 75.91 C 72.84 75.85 72.92 75.7 72.92 75.58 L 72.92 75.03 C 72.92 74.91 72.83 74.76 72.73 74.7 L 72.25 74.42 C 72.14 74.36 71.97 74.36 71.87 74.42 L 71.39 74.7 C 71.28 74.76 71.2 74.91 71.2 75.03 L 71.2 75.58 Z M 73.94 78.65 C 73.94 78.77 74.03 78.92 74.13 78.98 L 74.61 79.26 C 74.72 79.32 74.89 79.32 74.99 79.26 L 75.47 78.98 C 75.57 78.92 75.66 78.77 75.66 78.65 L 75.66 78.1 C 75.66 77.98 75.57 77.83 75.47 77.77 L 74.99 77.49 C 74.88 77.43 74.71 77.43 74.61 77.49 L 74.13 77.77 C 74.02 77.83 73.94 77.98 73.94 78.1 L 73.94 78.65 Z M 70.37 81.58 C 70.37 81.7 70.46 81.85 70.56 81.91 L 71.04 82.19 C 71.14 82.25 71.32 82.25 71.42 82.19 L 71.9 81.91 C 72.01 81.85 72.09 81.7 72.09 81.58 L 72.09 81.02 C 72.09 80.9 72 80.75 71.9 80.69 L 71.42 80.41 C 71.31 80.35 71.14 80.35 71.04 80.41 L 70.56 80.69 C 70.45 80.75 70.37 80.9 70.37 81.02 L 70.37 81.58 Z M 77.19 75.38 C 77.19 75.5 77.28 75.65 77.38 75.71 L 77.86 75.99 C 77.96 76.05 78.14 76.05 78.24 75.99 L 78.72 75.71 C 78.83 75.65 78.91 75.5 78.91 75.38 L 78.91 74.82 C 78.91 74.7 78.82 74.55 78.72 74.49 L 78.24 74.21 C 78.13 74.15 77.96 74.15 77.86 74.21 L 77.38 74.49 C 77.28 74.55 77.19 74.7 77.19 74.82 L 77.19 75.38 Z M 80.09 71.77 C 80.09 71.89 80.18 72.04 80.28 72.1 L 80.76 72.38 C 80.87 72.44 81.04 72.44 81.14 72.38 L 81.62 72.1 C 81.73 72.04 81.81 71.89 81.81 71.77 L 81.81 71.21 C 81.81 71.09 81.72 70.94 81.62 70.88 L 81.14 70.6 C 81.03 70.54 80.86 70.54 80.76 70.6 L 80.28 70.88 C 80.18 70.94 80.09 71.09 80.09 71.21 L 80.09 71.77 Z M 76.77 69.34 C 76.77 69.46 76.86 69.61 76.96 69.67 L 77.44 69.95 C 77.55 70.01 77.72 70.01 77.82 69.95 L 78.3 69.67 C 78.41 69.61 78.49 69.46 78.49 69.34 L 78.49 68.79 C 78.49 68.67 78.4 68.52 78.3 68.46 L 77.82 68.18 C 77.71 68.12 77.54 68.12 77.44 68.18 L 76.96 68.46 C 76.85 68.52 76.77 68.67 76.77 68.79 L 76.77 69.34 Z M 73.45 66.92 C 73.45 67.04 73.54 67.19 73.64 67.25 L 74.12 67.53 C 74.23 67.59 74.4 67.59 74.5 67.53 L 74.98 67.25 C 75.09 67.19 75.17 67.04 75.17 66.92 L 75.17 66.37 C 75.17 66.25 75.08 66.1 74.98 66.04 L 74.5 65.76 C 74.39 65.7 74.22 65.7 74.12 65.76 L 73.64 66.04 C 73.53 66.1 73.45 66.25 73.45 66.37 L 73.45 66.92 Z M 70.13 64.48 C 70.13 64.6 70.22 64.75 70.32 64.81 L 70.8 65.09 C 70.91 65.15 71.08 65.15 71.18 65.09 L 71.66 64.81 C 71.77 64.75 71.85 64.6 71.85 64.48 L 71.85 63.92 C 71.85 63.8 71.76 63.65 71.66 63.59 L 71.18 63.31 C 71.07 63.25 70.9 63.25 70.8 63.31 L 70.32 63.59 C 70.21 63.65 70.13 63.8 70.13 63.92 L 70.13 64.48 Z M 66.81 62.05 C 66.81 62.17 66.9 62.32 67 62.38 L 67.48 62.66 C 67.58 62.72 67.76 62.72 67.86 62.66 L 68.34 62.38 C 68.44 62.32 68.53 62.17 68.53 62.05 L 68.53 61.49 C 68.53 61.37 68.44 61.22 68.34 61.16 L 67.86 60.88 C 67.76 60.82 67.58 60.82 67.48 60.88 L 67 61.16 C 66.9 61.22 66.81 61.37 66.81 61.49 L 66.81 62.05 Z M 68.38 59.62 C 68.38 59.74 68.47 59.89 68.57 59.95 L 69.05 60.23 C 69.16 60.29 69.33 60.29 69.43 60.23 L 69.91 59.95 C 70.02 59.89 70.1 59.74 70.1 59.62 L 70.1 59.06 C 70.1 58.94 70.01 58.79 69.91 58.73 L 69.43 58.45 C 69.32 58.39 69.15 58.39 69.05 58.45 L 68.57 58.73 C 68.47 58.79 68.38 58.94 68.38 59.06 L 68.38 59.62 Z M 71.94 61.69 C 71.94 61.81 72.03 61.96 72.13 62.02 L 72.61 62.3 C 72.71 62.36 72.89 62.36 72.99 62.3 L 73.47 62.02 C 73.58 61.96 73.66 61.81 73.66 61.69 L 73.66 61.14 C 73.66 61.02 73.57 60.87 73.47 60.81 L 72.99 60.53 C 72.88 60.47 72.71 60.47 72.61 60.53 L 72.13 60.81 C 72.03 60.87 71.94 61.02 71.94 61.14 L 71.94 61.69 Z M 75.49 63.76 C 75.49 63.88 75.58 64.03 75.68 64.09 L 76.16 64.37 C 76.27 64.43 76.44 64.43 76.54 64.37 L 77.02 64.09 C 77.13 64.03 77.21 63.88 77.21 63.76 L 77.21 63.2 C 77.21 63.08 77.12 62.93 77.02 62.87 L 76.54 62.59 C 76.43 62.53 76.26 62.53 76.16 62.59 L 75.68 62.87 C 75.57 62.93 75.49 63.08 75.49 63.2 L 75.49 63.76 Z M 79.04 65.82 C 79.04 65.94 79.13 66.09 79.23 66.15 L 79.71 66.43 C 79.82 66.49 79.99 66.49 80.09 66.43 L 80.57 66.15 C 80.68 66.09 80.76 65.94 80.76 65.82 L 80.76 65.26 C 80.76 65.14 80.67 64.99 80.57 64.93 L 80.09 64.65 C 79.98 64.59 79.81 64.59 79.71 64.65 L 79.23 64.93 C 79.13 64.99 79.04 65.14 79.04 65.26 L 79.04 65.82 Z M 82.6 67.89 C 82.6 68.01 82.69 68.16 82.79 68.22 L 83.27 68.5 C 83.38 68.56 83.55 68.56 83.65 68.5 L 84.13 68.22 C 84.23 68.16 84.32 68.01 84.32 67.89 L 84.32 67.34 C 84.32 67.22 84.24 67.07 84.13 67.01 L 83.65 66.73 C 83.54 66.67 83.37 66.67 83.27 66.73 L 82.79 67.01 C 82.68 67.07 82.6 67.22 82.6 67.34 L 82.6 67.89 Z M 84.69 63.75 C 84.69 63.87 84.78 64.02 84.88 64.08 L 85.36 64.36 C 85.47 64.42 85.64 64.42 85.74 64.36 L 86.22 64.08 C 86.33 64.02 86.41 63.87 86.41 63.75 L 86.41 63.19 C 86.41 63.07 86.32 62.92 86.22 62.86 L 85.74 62.58 C 85.64 62.52 85.46 62.52 85.36 62.58 L 84.88 62.86 C 84.78 62.92 84.69 63.07 84.69 63.19 L 84.69 63.75 Z M 80.94 62.06 C 80.94 62.18 81.03 62.33 81.13 62.39 L 81.61 62.67 C 81.72 62.73 81.89 62.73 81.99 62.67 L 82.47 62.39 C 82.58 62.33 82.66 62.18 82.66 62.06 L 82.66 61.5 C 82.66 61.38 82.58 61.23 82.47 61.17 L 81.99 60.89 C 81.88 60.83 81.71 60.83 81.61 60.89 L 81.13 61.17 C 81.03 61.23 80.94 61.38 80.94 61.5 L 80.94 62.06 Z M 77.19 60.39 C 77.19 60.51 77.28 60.66 77.38 60.72 L 77.86 61 C 77.97 61.06 78.14 61.06 78.24 61 L 78.72 60.72 C 78.82 60.66 78.91 60.51 78.91 60.39 L 78.91 59.84 C 78.91 59.72 78.82 59.57 78.72 59.51 L 78.24 59.23 C 78.13 59.17 77.96 59.17 77.86 59.23 L 77.38 59.51 C 77.28 59.57 77.19 59.72 77.19 59.84 L 77.19 60.39 Z M 69.69 57.03 C 69.69 57.15 69.78 57.3 69.88 57.36 L 70.36 57.64 C 70.47 57.7 70.64 57.7 70.75 57.64 L 71.23 57.36 C 71.34 57.3 71.42 57.15 71.42 57.03 L 71.42 56.47 C 71.42 56.35 71.33 56.2 71.23 56.14 L 70.75 55.86 C 70.64 55.8 70.47 55.8 70.36 55.86 L 69.88 56.14 C 69.77 56.2 69.69 56.35 69.69 56.47 L 69.69 57.03 Z M 70.72 54.32 C 70.72 54.44 70.81 54.59 70.91 54.65 L 71.39 54.93 C 71.49 54.99 71.67 54.99 71.77 54.93 L 72.25 54.65 C 72.36 54.59 72.44 54.44 72.44 54.32 L 72.44 53.77 C 72.44 53.65 72.35 53.5 72.25 53.44 L 71.77 53.16 C 71.66 53.1 71.49 53.1 71.39 53.16 L 70.91 53.44 C 70.8 53.5 70.72 53.65 70.72 53.77 L 70.72 54.32 Z M 74.62 55.59 C 74.62 55.71 74.71 55.86 74.81 55.92 L 75.29 56.2 C 75.39 56.26 75.57 56.26 75.67 56.2 L 76.15 55.92 C 76.26 55.86 76.34 55.71 76.34 55.59 L 76.34 55.04 C 76.34 54.92 76.25 54.77 76.15 54.71 L 75.67 54.43 C 75.57 54.37 75.39 54.37 75.29 54.43 L 74.81 54.71 C 74.71 54.77 74.62 54.92 74.62 55.04 L 74.62 55.59 Z M 73.45 58.71 C 73.45 58.83 73.54 58.98 73.64 59.04 L 74.12 59.32 C 74.23 59.38 74.4 59.38 74.5 59.32 L 74.98 59.04 C 75.09 58.98 75.17 58.83 75.17 58.71 L 75.17 58.16 C 75.17 58.04 75.08 57.89 74.98 57.83 L 74.5 57.55 C 74.39 57.49 74.22 57.49 74.12 57.55 L 73.64 57.83 C 73.54 57.89 73.45 58.04 73.45 58.16 L 73.45 58.71 Z M 78.53 56.87 C 78.53 56.99 78.62 57.14 78.72 57.2 L 79.2 57.48 C 79.3 57.54 79.48 57.54 79.58 57.48 L 80.06 57.2 C 80.16 57.14 80.25 56.99 80.25 56.87 L 80.25 56.31 C 80.25 56.19 80.16 56.04 80.06 55.98 L 79.58 55.7 C 79.47 55.64 79.3 55.64 79.2 55.7 L 78.72 55.98 C 78.61 56.04 78.53 56.19 78.53 56.31 L 78.53 56.87 Z M 82.43 58.15 C 82.43 58.27 82.52 58.42 82.62 58.48 L 83.1 58.76 C 83.2 58.82 83.38 58.82 83.48 58.76 L 83.96 58.48 C 84.06 58.42 84.15 58.27 84.15 58.15 L 84.15 57.6 C 84.15 57.48 84.06 57.33 83.96 57.27 L 83.48 56.99 C 83.37 56.93 83.2 56.93 83.1 56.99 L 82.62 57.27 C 82.51 57.33 82.43 57.48 82.43 57.6 L 82.43 58.15 Z M 79.5 53.23 C 79.5 53.35 79.59 53.5 79.69 53.56 L 80.17 53.84 C 80.27 53.9 80.45 53.9 80.55 53.84 L 81.03 53.56 C 81.14 53.5 81.22 53.35 81.22 53.23 L 81.22 52.68 C 81.22 52.56 81.13 52.41 81.03 52.35 L 80.55 52.07 C 80.44 52.01 80.27 52.01 80.17 52.07 L 79.69 52.35 C 79.58 52.41 79.5 52.56 79.5 52.68 L 79.5 53.23 Z M 83.51 54.09 C 83.51 54.21 83.6 54.36 83.7 54.42 L 84.18 54.7 C 84.29 54.76 84.46 54.76 84.56 54.7 L 85.04 54.42 C 85.15 54.36 85.23 54.21 85.23 54.09 L 85.23 53.53 C 85.23 53.41 85.14 53.26 85.04 53.2 L 84.56 52.92 C 84.45 52.86 84.28 52.86 84.18 52.92 L 83.7 53.2 C 83.59 53.26 83.51 53.41 83.51 53.53 L 83.51 54.09 Z M 87.53 54.95 C 87.53 55.07 87.62 55.22 87.72 55.28 L 88.2 55.56 C 88.31 55.62 88.48 55.62 88.58 55.56 L 89.06 55.28 C 89.17 55.22 89.25 55.07 89.25 54.95 L 89.25 54.4 C 89.25 54.28 89.16 54.13 89.06 54.07 L 88.58 53.79 C 88.48 53.73 88.3 53.73 88.2 53.79 L 87.72 54.07 C 87.61 54.13 87.53 54.28 87.53 54.4 L 87.53 54.95 Z M 88.25 50.37 C 88.25 50.49 88.34 50.64 88.44 50.7 L 88.92 50.98 C 89.02 51.04 89.2 51.04 89.3 50.98 L 89.78 50.7 C 89.89 50.64 89.97 50.49 89.97 50.37 L 89.97 49.81 C 89.97 49.69 89.88 49.54 89.78 49.48 L 89.3 49.2 C 89.19 49.14 89.02 49.14 88.92 49.2 L 88.44 49.48 C 88.33 49.54 88.25 49.69 88.25 49.81 L 88.25 50.37 Z M 84.16 49.94 C 84.16 50.06 84.25 50.21 84.35 50.27 L 84.83 50.55 C 84.93 50.61 85.11 50.61 85.21 50.55 L 85.69 50.27 C 85.8 50.21 85.88 50.06 85.88 49.94 L 85.88 49.39 C 85.88 49.27 85.79 49.12 85.69 49.06 L 85.21 48.78 C 85.1 48.72 84.93 48.72 84.83 48.78 L 84.35 49.06 C 84.25 49.12 84.16 49.27 84.16 49.39 L 84.16 49.94 Z M 80.08 49.5 C 80.08 49.62 80.17 49.77 80.27 49.83 L 80.75 50.11 C 80.86 50.17 81.03 50.17 81.13 50.11 L 81.61 49.83 C 81.72 49.77 81.8 49.62 81.8 49.5 L 81.8 48.95 C 81.8 48.83 81.71 48.68 81.61 48.62 L 81.13 48.34 C 81.02 48.28 80.85 48.28 80.75 48.34 L 80.27 48.62 C 80.16 48.68 80.08 48.83 80.08 48.95 L 80.08 49.5 Z M 76 49.07 C 76 49.19 76.09 49.34 76.19 49.4 L 76.67 49.68 C 76.77 49.74 76.95 49.74 77.05 49.68 L 77.53 49.4 C 77.64 49.34 77.72 49.19 77.72 49.07 L 77.72 48.51 C 77.72 48.39 77.63 48.24 77.53 48.18 L 77.05 47.9 C 76.94 47.84 76.77 47.84 76.67 47.9 L 76.19 48.18 C 76.08 48.24 76 48.39 76 48.51 L 76 49.07 Z M 71.92 48.64 C 71.92 48.76 72.01 48.91 72.11 48.97 L 72.59 49.25 C 72.7 49.31 72.87 49.31 72.97 49.25 L 73.45 48.97 C 73.56 48.91 73.64 48.76 73.64 48.64 L 73.64 48.09 C 73.64 47.97 73.55 47.82 73.45 47.76 L 72.97 47.48 C 72.86 47.42 72.69 47.42 72.59 47.48 L 72.11 47.76 C 72 47.82 71.92 47.97 71.92 48.09 L 71.92 48.64 Z M 76.17 45.74 C 76.17 45.86 76.26 46.01 76.36 46.07 L 76.84 46.35 C 76.94 46.41 77.12 46.41 77.22 46.35 L 77.7 46.07 C 77.81 46.01 77.89 45.86 77.89 45.74 L 77.89 45.18 C 77.89 45.06 77.8 44.91 77.7 44.85 L 77.22 44.57 C 77.11 44.51 76.94 44.51 76.84 44.57 L 76.36 44.85 C 76.26 44.91 76.17 45.06 76.17 45.18 L 76.17 45.74 Z M 72.07 45.74 C 72.07 45.86 72.16 46.01 72.26 46.07 L 72.74 46.35 C 72.85 46.41 73.02 46.41 73.13 46.35 L 73.61 46.07 C 73.72 46.01 73.8 45.86 73.8 45.74 L 73.8 45.18 C 73.8 45.06 73.71 44.91 73.61 44.85 L 73.13 44.57 C 73.02 44.51 72.85 44.51 72.74 44.57 L 72.26 44.85 C 72.15 44.91 72.07 45.06 72.07 45.18 L 72.07 45.74 Z M 80.28 45.74 C 80.28 45.86 80.37 46.01 80.47 46.07 L 80.95 46.35 C 81.06 46.41 81.23 46.41 81.33 46.35 L 81.81 46.07 C 81.91 46.01 82 45.86 82 45.74 L 82 45.18 C 82 45.06 81.91 44.91 81.81 44.85 L 81.33 44.57 C 81.22 44.51 81.05 44.51 80.95 44.57 L 80.47 44.85 C 80.36 44.91 80.28 45.06 80.28 45.18 L 80.28 45.74 Z M 84.39 45.74 C 84.39 45.86 84.48 46.01 84.58 46.07 L 85.06 46.35 C 85.16 46.41 85.34 46.41 85.44 46.35 L 85.92 46.07 C 86.02 46.01 86.11 45.86 86.11 45.74 L 86.11 45.18 C 86.11 45.06 86.02 44.91 85.92 44.85 L 85.44 44.57 C 85.33 44.51 85.16 44.51 85.06 44.57 L 84.58 44.85 C 84.47 44.91 84.39 45.06 84.39 45.18 L 84.39 45.74 Z M 88.48 45.74 C 88.48 45.86 88.57 46.01 88.67 46.07 L 89.15 46.35 C 89.25 46.41 89.43 46.41 89.53 46.35 L 90.01 46.07 C 90.12 46.01 90.2 45.86 90.2 45.74 L 90.2 45.18 C 90.2 45.06 90.11 44.91 90.01 44.85 L 89.53 44.57 C 89.43 44.51 89.25 44.51 89.15 44.57 L 88.67 44.85 C 88.56 44.91 88.48 45.06 88.48 45.18 L 88.48 45.74 Z M 88.25 41.11 C 88.25 41.23 88.34 41.38 88.44 41.44 L 88.92 41.72 C 89.02 41.78 89.2 41.78 89.3 41.72 L 89.78 41.44 C 89.89 41.38 89.97 41.23 89.97 41.11 L 89.97 40.56 C 89.97 40.44 89.88 40.29 89.78 40.23 L 89.3 39.95 C 89.19 39.89 89.02 39.89 88.92 39.95 L 88.44 40.23 C 88.33 40.29 88.25 40.44 88.25 40.56 L 88.25 41.11 Z M 84.16 41.54 C 84.16 41.66 84.25 41.81 84.35 41.87 L 84.83 42.15 C 84.93 42.21 85.11 42.21 85.21 42.15 L 85.69 41.87 C 85.8 41.81 85.88 41.66 85.88 41.54 L 85.88 40.99 C 85.88 40.87 85.79 40.72 85.69 40.66 L 85.21 40.38 C 85.1 40.32 84.93 40.32 84.83 40.38 L 84.35 40.66 C 84.25 40.72 84.16 40.87 84.16 40.99 L 84.16 41.54 Z M 80.08 41.98 C 80.08 42.1 80.17 42.25 80.27 42.31 L 80.75 42.59 C 80.86 42.65 81.03 42.65 81.13 42.59 L 81.61 42.31 C 81.72 42.25 81.8 42.1 81.8 41.98 L 81.8 41.43 C 81.8 41.31 81.71 41.16 81.61 41.1 L 81.13 40.82 C 81.02 40.76 80.85 40.76 80.75 40.82 L 80.27 41.1 C 80.16 41.16 80.08 41.31 80.08 41.43 L 80.08 41.98 Z M 76 42.41 C 76 42.53 76.09 42.68 76.19 42.74 L 76.67 43.02 C 76.77 43.08 76.95 43.08 77.05 43.02 L 77.53 42.74 C 77.64 42.68 77.72 42.53 77.72 42.41 L 77.72 41.85 C 77.72 41.73 77.63 41.58 77.53 41.52 L 77.05 41.24 C 76.94 41.18 76.77 41.18 76.67 41.24 L 76.19 41.52 C 76.08 41.58 76 41.73 76 41.85 L 76 42.41 Z M 75.49 39.11 C 75.49 39.23 75.58 39.38 75.68 39.44 L 76.16 39.72 C 76.27 39.78 76.44 39.78 76.54 39.72 L 77.02 39.44 C 77.12 39.38 77.21 39.23 77.21 39.11 L 77.21 38.56 C 77.21 38.44 77.12 38.29 77.02 38.23 L 76.54 37.95 C 76.44 37.89 76.26 37.89 76.16 37.95 L 75.68 38.23 C 75.57 38.29 75.49 38.44 75.49 38.56 L 75.49 39.11 Z M 79.49 38.25 C 79.49 38.37 79.58 38.52 79.68 38.58 L 80.16 38.86 C 80.27 38.92 80.44 38.92 80.54 38.86 L 81.02 38.58 C 81.13 38.52 81.21 38.37 81.21 38.25 L 81.21 37.69 C 81.21 37.57 81.12 37.42 81.02 37.36 L 80.54 37.08 C 80.43 37.02 80.26 37.02 80.16 37.08 L 79.68 37.36 C 79.57 37.42 79.49 37.57 79.49 37.69 L 79.49 38.25 Z M 83.51 37.39 C 83.51 37.51 83.6 37.66 83.7 37.72 L 84.18 38 C 84.29 38.06 84.46 38.06 84.57 38 L 85.05 37.72 C 85.16 37.66 85.24 37.51 85.24 37.39 L 85.24 36.83 C 85.24 36.71 85.15 36.56 85.05 36.5 L 84.57 36.22 C 84.46 36.16 84.29 36.16 84.18 36.22 L 83.7 36.5 C 83.6 36.56 83.51 36.71 83.51 36.83 L 83.51 37.39 Z M 87.52 36.53 C 87.52 36.65 87.61 36.8 87.71 36.86 L 88.19 37.14 C 88.3 37.2 88.47 37.2 88.57 37.14 L 89.05 36.86 C 89.16 36.8 89.24 36.65 89.24 36.53 L 89.24 35.98 C 89.24 35.86 89.15 35.71 89.05 35.65 L 88.57 35.37 C 88.46 35.31 88.29 35.31 88.19 35.37 L 87.71 35.65 C 87.61 35.71 87.52 35.86 87.52 35.98 L 87.52 36.53 Z M 86.33 32.05 C 86.33 32.17 86.41 32.32 86.52 32.38 L 87 32.66 C 87.11 32.72 87.28 32.72 87.38 32.66 L 87.86 32.38 C 87.97 32.32 88.05 32.17 88.05 32.05 L 88.05 31.49 C 88.05 31.37 87.96 31.22 87.86 31.16 L 87.38 30.88 C 87.27 30.82 87.1 30.82 87 30.88 L 86.52 31.16 C 86.41 31.22 86.33 31.37 86.33 31.49 L 86.33 32.05 Z M 82.43 33.34 C 82.43 33.46 82.52 33.61 82.62 33.67 L 83.1 33.95 C 83.2 34.01 83.38 34.01 83.48 33.95 L 83.96 33.67 C 84.06 33.61 84.15 33.46 84.15 33.34 L 84.15 32.78 C 84.15 32.66 84.06 32.51 83.96 32.45 L 83.48 32.17 C 83.37 32.11 83.2 32.11 83.1 32.17 L 82.62 32.45 C 82.51 32.51 82.43 32.66 82.43 32.78 L 82.43 33.34 Z M 78.53 34.61 C 78.53 34.73 78.62 34.88 78.72 34.94 L 79.2 35.22 C 79.31 35.28 79.48 35.28 79.58 35.22 L 80.06 34.94 C 80.17 34.88 80.25 34.73 80.25 34.61 L 80.25 34.06 C 80.25 33.94 80.17 33.79 80.06 33.73 L 79.58 33.45 C 79.47 33.39 79.3 33.39 79.2 33.45 L 78.72 33.73 C 78.61 33.79 78.53 33.94 78.53 34.06 L 78.53 34.61 Z M 74.62 35.89 C 74.62 36.01 74.71 36.16 74.81 36.22 L 75.29 36.5 C 75.39 36.56 75.57 36.56 75.67 36.5 L 76.15 36.22 C 76.26 36.16 76.34 36.01 76.34 35.89 L 76.34 35.33 C 76.34 35.21 76.25 35.06 76.15 35 L 75.67 34.72 C 75.57 34.66 75.39 34.66 75.29 34.72 L 74.81 35 C 74.71 35.06 74.62 35.21 74.62 35.33 L 74.62 35.89 Z M 69.69 34.46 C 69.69 34.58 69.78 34.73 69.88 34.79 L 70.36 35.07 C 70.46 35.13 70.64 35.13 70.74 35.07 L 71.22 34.79 C 71.33 34.73 71.41 34.58 71.41 34.46 L 71.41 33.91 C 71.41 33.79 71.32 33.64 71.22 33.58 L 70.74 33.3 C 70.63 33.24 70.46 33.24 70.36 33.3 L 69.88 33.58 C 69.77 33.64 69.69 33.79 69.69 33.91 L 69.69 34.46 Z M 73.44 32.77 C 73.44 32.89 73.53 33.04 73.63 33.1 L 74.11 33.38 C 74.22 33.44 74.39 33.44 74.49 33.38 L 74.97 33.1 C 75.08 33.04 75.16 32.89 75.16 32.77 L 75.16 32.21 C 75.16 32.09 75.07 31.94 74.97 31.88 L 74.49 31.6 C 74.39 31.54 74.21 31.54 74.11 31.6 L 73.63 31.88 C 73.52 31.94 73.44 32.09 73.44 32.21 L 73.44 32.77 Z M 77.19 31.09 C 77.19 31.21 77.28 31.36 77.38 31.42 L 77.86 31.7 C 77.97 31.76 78.14 31.76 78.25 31.7 L 78.73 31.42 C 78.83 31.36 78.92 31.21 78.92 31.09 L 78.92 30.54 C 78.92 30.42 78.83 30.27 78.73 30.21 L 78.25 29.93 C 78.14 29.87 77.97 29.87 77.86 29.93 L 77.38 30.21 C 77.28 30.27 77.19 30.42 77.19 30.54 L 77.19 31.09 Z M 80.94 29.41 C 80.94 29.53 81.02 29.68 81.13 29.74 L 81.61 30.02 C 81.72 30.08 81.89 30.08 81.99 30.02 L 82.47 29.74 C 82.58 29.68 82.66 29.53 82.66 29.41 L 82.66 28.86 C 82.66 28.74 82.57 28.59 82.47 28.53 L 81.99 28.25 C 81.88 28.19 81.71 28.19 81.61 28.25 L 81.13 28.53 C 81.02 28.59 80.94 28.74 80.94 28.86 L 80.94 29.41 Z M 84.69 27.73 C 84.69 27.85 84.78 28 84.88 28.06 L 85.36 28.34 C 85.47 28.4 85.64 28.4 85.74 28.34 L 86.22 28.06 C 86.33 28 86.41 27.85 86.41 27.73 L 86.41 27.18 C 86.41 27.06 86.32 26.91 86.22 26.85 L 85.74 26.57 C 85.64 26.51 85.46 26.51 85.36 26.57 L 84.88 26.85 C 84.78 26.91 84.69 27.06 84.69 27.18 L 84.69 27.73 Z M 82.6 23.6 C 82.6 23.72 82.69 23.87 82.79 23.93 L 83.27 24.21 C 83.38 24.27 83.55 24.27 83.65 24.21 L 84.13 23.93 C 84.24 23.87 84.32 23.72 84.32 23.6 L 84.32 23.04 C 84.32 22.92 84.23 22.77 84.13 22.71 L 83.65 22.43 C 83.54 22.37 83.37 22.37 83.27 22.43 L 82.79 22.71 C 82.68 22.77 82.6 22.92 82.6 23.04 L 82.6 23.6 Z M 79.04 25.67 C 79.04 25.79 79.13 25.94 79.23 26 L 79.71 26.28 C 79.82 26.34 79.99 26.34 80.1 26.28 L 80.58 26 C 80.69 25.94 80.77 25.79 80.77 25.67 L 80.77 25.11 C 80.77 24.99 80.69 24.84 80.58 24.78 L 80.1 24.5 C 79.99 24.44 79.82 24.44 79.71 24.5 L 79.23 24.78 C 79.13 24.84 79.04 24.99 79.04 25.11 L 79.04 25.67 Z M 75.49 27.73 C 75.49 27.85 75.58 28 75.68 28.06 L 76.16 28.34 C 76.27 28.4 76.44 28.4 76.54 28.34 L 77.02 28.06 C 77.13 28 77.21 27.85 77.21 27.73 L 77.21 27.18 C 77.21 27.06 77.12 26.91 77.02 26.85 L 76.54 26.57 C 76.43 26.51 76.26 26.51 76.16 26.57 L 75.68 26.85 C 75.57 26.91 75.49 27.06 75.49 27.18 L 75.49 27.73 Z M 71.94 29.81 C 71.94 29.93 72.03 30.08 72.13 30.14 L 72.61 30.42 C 72.72 30.48 72.89 30.48 72.99 30.42 L 73.47 30.14 C 73.57 30.08 73.66 29.93 73.66 29.81 L 73.66 29.25 C 73.66 29.13 73.57 28.98 73.47 28.92 L 72.99 28.64 C 72.88 28.58 72.71 28.58 72.61 28.64 L 72.13 28.92 C 72.02 28.98 71.94 29.13 71.94 29.25 L 71.94 29.81 Z M 68.38 31.87 C 68.38 31.99 68.47 32.14 68.57 32.2 L 69.05 32.48 C 69.16 32.54 69.33 32.54 69.43 32.48 L 69.91 32.2 C 70.02 32.14 70.1 31.99 70.1 31.87 L 70.1 31.32 C 70.1 31.2 70.01 31.05 69.91 30.99 L 69.43 30.71 C 69.32 30.65 69.15 30.65 69.05 30.71 L 68.57 30.99 C 68.47 31.05 68.38 31.2 68.38 31.32 L 68.38 31.87 Z M 70.13 27.01 C 70.13 27.13 70.22 27.28 70.32 27.34 L 70.8 27.62 C 70.9 27.68 71.08 27.68 71.18 27.62 L 71.66 27.34 C 71.77 27.28 71.85 27.13 71.85 27.01 L 71.85 26.46 C 71.85 26.34 71.76 26.19 71.66 26.12 L 71.18 25.84 C 71.07 25.78 70.9 25.78 70.8 25.84 L 70.32 26.12 C 70.21 26.18 70.13 26.33 70.13 26.46 L 70.13 27.01 Z M 73.45 24.57 C 73.45 24.69 73.54 24.84 73.64 24.9 L 74.12 25.18 C 74.23 25.24 74.4 25.24 74.5 25.18 L 74.98 24.9 C 75.09 24.84 75.17 24.69 75.17 24.57 L 75.17 24.02 C 75.17 23.9 75.08 23.75 74.98 23.69 L 74.5 23.41 C 74.39 23.35 74.22 23.35 74.12 23.41 L 73.64 23.69 C 73.54 23.75 73.45 23.9 73.45 24.02 L 73.45 24.57 Z M 76.77 22.14 C 76.77 22.26 76.86 22.41 76.96 22.47 L 77.44 22.75 C 77.55 22.81 77.72 22.81 77.83 22.75 L 78.31 22.47 C 78.42 22.41 78.5 22.26 78.5 22.14 L 78.5 21.59 C 78.5 21.47 78.41 21.32 78.31 21.26 L 77.83 20.98 C 77.72 20.92 77.55 20.92 77.44 20.98 L 76.96 21.26 C 76.86 21.32 76.77 21.47 76.77 21.59 L 76.77 22.14 Z M 80.09 19.71 C 80.09 19.83 80.18 19.98 80.28 20.04 L 80.76 20.32 C 80.87 20.38 81.04 20.38 81.15 20.32 L 81.63 20.04 C 81.74 19.98 81.82 19.83 81.82 19.71 L 81.82 19.16 C 81.82 19.04 81.73 18.89 81.63 18.83 L 81.15 18.55 C 81.04 18.49 80.87 18.49 80.76 18.55 L 80.28 18.83 C 80.17 18.89 80.09 19.04 80.09 19.16 L 80.09 19.71 Z M 77.19 16.11 C 77.19 16.23 77.28 16.38 77.38 16.44 L 77.86 16.72 C 77.97 16.78 78.14 16.78 78.24 16.72 L 78.72 16.44 C 78.83 16.38 78.91 16.23 78.91 16.11 L 78.91 15.56 C 78.91 15.44 78.82 15.29 78.72 15.23 L 78.24 14.95 C 78.13 14.89 77.96 14.89 77.86 14.95 L 77.38 15.23 C 77.28 15.29 77.19 15.44 77.19 15.56 L 77.19 16.11 Z M 74.14 18.88 C 74.14 19 74.23 19.15 74.33 19.21 L 74.81 19.49 C 74.92 19.55 75.09 19.55 75.19 19.49 L 75.67 19.21 C 75.77 19.15 75.86 19 75.86 18.88 L 75.86 18.32 C 75.86 18.2 75.77 18.05 75.67 17.99 L 75.19 17.71 C 75.08 17.65 74.91 17.65 74.81 17.71 L 74.33 17.99 C 74.22 18.05 74.14 18.2 74.14 18.32 L 74.14 18.88 Z M 71.1 21.65 C 71.1 21.77 71.19 21.92 71.29 21.98 L 71.77 22.26 C 71.88 22.32 72.05 22.32 72.15 22.26 L 72.63 21.98 C 72.74 21.92 72.82 21.77 72.82 21.65 L 72.82 21.09 C 72.82 20.97 72.73 20.82 72.63 20.76 L 72.15 20.48 C 72.05 20.42 71.87 20.42 71.77 20.48 L 71.29 20.76 C 71.18 20.82 71.1 20.97 71.1 21.09 L 71.1 21.65 Z M 68.04 24.41 C 68.04 24.53 68.13 24.68 68.23 24.74 L 68.71 25.02 C 68.82 25.08 68.99 25.08 69.09 25.02 L 69.57 24.74 C 69.68 24.68 69.76 24.53 69.76 24.41 L 69.76 23.85 C 69.76 23.73 69.67 23.58 69.57 23.52 L 69.09 23.24 C 68.98 23.18 68.81 23.18 68.71 23.24 L 68.23 23.52 C 68.12 23.58 68.04 23.73 68.04 23.85 L 68.04 24.41 Z M 65 27.18 C 65 27.3 65.09 27.45 65.19 27.51 L 65.67 27.79 C 65.78 27.85 65.95 27.85 66.05 27.79 L 66.53 27.51 C 66.64 27.45 66.72 27.3 66.72 27.18 L 66.72 26.63 C 66.72 26.51 66.63 26.36 66.53 26.3 L 66.05 26.02 C 65.94 25.96 65.77 25.96 65.67 26.02 L 65.19 26.3 C 65.09 26.36 65 26.51 65 26.63 L 65 27.18 Z M 62.96 25.13 C 62.96 25.25 63.05 25.4 63.15 25.46 L 63.63 25.74 C 63.74 25.8 63.91 25.8 64.01 25.74 L 64.49 25.46 C 64.6 25.4 64.68 25.25 64.68 25.13 L 64.68 24.58 C 64.68 24.46 64.6 24.31 64.49 24.25 L 64.01 23.97 C 63.9 23.91 63.73 23.91 63.63 23.97 L 63.15 24.25 C 63.04 24.31 62.96 24.46 62.96 24.58 L 62.96 25.13 Z M 65.7 22.05 C 65.7 22.17 65.79 22.32 65.89 22.38 L 66.37 22.66 C 66.48 22.72 66.65 22.72 66.75 22.66 L 67.23 22.38 C 67.33 22.32 67.42 22.17 67.42 22.05 L 67.42 21.49 C 67.42 21.37 67.33 21.22 67.23 21.16 L 66.75 20.88 C 66.64 20.82 66.47 20.82 66.37 20.88 L 65.89 21.16 C 65.78 21.22 65.7 21.37 65.7 21.49 L 65.7 22.05 Z M 68.45 18.98 C 68.45 19.1 68.54 19.25 68.64 19.31 L 69.12 19.59 C 69.22 19.65 69.4 19.65 69.5 19.59 L 69.98 19.31 C 70.08 19.25 70.17 19.1 70.17 18.98 L 70.17 18.42 C 70.17 18.3 70.08 18.15 69.98 18.09 L 69.5 17.81 C 69.39 17.75 69.22 17.75 69.12 17.81 L 68.64 18.09 C 68.53 18.15 68.45 18.3 68.45 18.42 L 68.45 18.98 Z M 63.13 19.95 C 63.13 20.07 63.22 20.22 63.32 20.28 L 63.8 20.56 C 63.9 20.62 64.08 20.62 64.18 20.56 L 64.66 20.28 C 64.77 20.22 64.85 20.07 64.85 19.95 L 64.85 19.39 C 64.85 19.27 64.77 19.12 64.66 19.06 L 64.18 18.78 C 64.07 18.72 63.9 18.72 63.8 18.78 L 63.32 19.06 C 63.21 19.12 63.13 19.27 63.13 19.39 L 63.13 19.95 Z M 71.2 15.91 C 71.2 16.03 71.29 16.18 71.39 16.24 L 71.87 16.52 C 71.97 16.58 72.15 16.58 72.25 16.52 L 72.73 16.24 C 72.84 16.18 72.92 16.03 72.92 15.91 L 72.92 15.35 C 72.92 15.23 72.83 15.08 72.73 15.02 L 72.25 14.74 C 72.14 14.68 71.97 14.68 71.87 14.74 L 71.39 15.02 C 71.28 15.08 71.2 15.23 71.2 15.35 L 71.2 15.91 Z M 73.94 12.84 C 73.94 12.96 74.03 13.11 74.13 13.17 L 74.61 13.45 C 74.71 13.51 74.89 13.51 74.99 13.45 L 75.47 13.17 C 75.57 13.11 75.66 12.96 75.66 12.84 L 75.66 12.28 C 75.66 12.16 75.57 12.01 75.47 11.95 L 74.99 11.67 C 74.88 11.61 74.71 11.61 74.61 11.67 L 74.13 11.95 C 74.02 12.01 73.94 12.16 73.94 12.28 L 73.94 12.84 Z M 67.95 13.26 C 67.95 13.38 68.04 13.53 68.14 13.59 L 68.62 13.87 C 68.72 13.93 68.9 13.93 69 13.87 L 69.48 13.59 C 69.58 13.53 69.67 13.38 69.67 13.26 L 69.67 12.7 C 69.67 12.58 69.58 12.43 69.48 12.37 L 69 12.09 C 68.89 12.03 68.72 12.03 68.62 12.09 L 68.14 12.37 C 68.03 12.43 67.95 12.58 67.95 12.7 L 67.95 13.26 Z M 70.36 9.92 C 70.36 10.04 70.45 10.19 70.55 10.25 L 71.03 10.53 C 71.14 10.59 71.31 10.59 71.41 10.53 L 71.89 10.25 C 72 10.19 72.08 10.04 72.08 9.92 L 72.08 9.36 C 72.08 9.24 71.99 9.09 71.89 9.03 L 71.41 8.75 C 71.3 8.69 71.13 8.69 71.03 8.75 L 70.55 9.03 C 70.44 9.09 70.36 9.24 70.36 9.36 L 70.36 9.92 Z M 66.5 7.39 C 66.5 7.51 66.59 7.66 66.69 7.72 L 67.17 8 C 67.27 8.06 67.45 8.06 67.55 8 L 68.03 7.72 C 68.13 7.66 68.22 7.51 68.22 7.39 L 68.22 6.84 C 68.22 6.72 68.13 6.57 68.03 6.51 L 67.55 6.23 C 67.44 6.17 67.27 6.17 67.17 6.23 L 66.69 6.51 C 66.58 6.57 66.5 6.72 66.5 6.84 L 66.5 7.39 Z M 64.45 10.97 C 64.45 11.09 64.54 11.24 64.64 11.3 L 65.12 11.58 C 65.22 11.64 65.4 11.64 65.5 11.58 L 65.98 11.3 C 66.09 11.24 66.17 11.09 66.17 10.97 L 66.17 10.42 C 66.17 10.3 66.08 10.15 65.98 10.09 L 65.5 9.81 C 65.39 9.75 65.22 9.75 65.12 9.81 L 64.64 10.09 C 64.53 10.15 64.45 10.3 64.45 10.42 L 64.45 10.97 Z M 60.73 9.07 C 60.73 9.19 60.82 9.34 60.92 9.4 L 61.4 9.68 C 61.51 9.74 61.68 9.74 61.78 9.68 L 62.26 9.4 C 62.37 9.34 62.45 9.19 62.45 9.07 L 62.45 8.51 C 62.45 8.39 62.36 8.24 62.26 8.18 L 61.78 7.9 C 61.67 7.84 61.5 7.84 61.4 7.9 L 60.92 8.18 C 60.81 8.24 60.73 8.39 60.73 8.51 L 60.73 9.07 Z M 62.4 5.29 C 62.4 5.41 62.49 5.56 62.59 5.62 L 63.07 5.9 C 63.18 5.96 63.35 5.96 63.45 5.9 L 63.93 5.62 C 64.03 5.56 64.12 5.41 64.12 5.29 L 64.12 4.73 C 64.12 4.61 64.03 4.46 63.93 4.4 L 63.45 4.12 C 63.34 4.06 63.17 4.06 63.07 4.12 L 62.59 4.4 C 62.49 4.46 62.4 4.61 62.4 4.73 L 62.4 5.29 Z M 58.11 3.62 C 58.11 3.74 58.2 3.89 58.3 3.95 L 58.78 4.23 C 58.88 4.29 59.06 4.29 59.16 4.23 L 59.64 3.95 C 59.74 3.89 59.83 3.74 59.83 3.62 L 59.83 3.07 C 59.83 2.95 59.74 2.8 59.64 2.74 L 59.16 2.46 C 59.05 2.4 58.88 2.4 58.78 2.46 L 58.3 2.74 C 58.19 2.8 58.11 2.95 58.11 3.07 L 58.11 3.62 Z M 56.84 7.56 C 56.84 7.68 56.93 7.83 57.03 7.89 L 57.51 8.17 C 57.62 8.23 57.79 8.23 57.89 8.17 L 58.37 7.89 C 58.48 7.83 58.56 7.68 58.56 7.56 L 58.56 7 C 58.56 6.88 58.47 6.73 58.37 6.67 L 57.89 6.39 C 57.78 6.33 57.61 6.33 57.51 6.39 L 57.03 6.67 C 56.92 6.73 56.84 6.88 56.84 7 L 56.84 7.56 Z M 52.81 6.47 C 52.81 6.59 52.9 6.74 53 6.8 L 53.48 7.08 C 53.58 7.14 53.76 7.14 53.86 7.08 L 54.34 6.8 C 54.44 6.74 54.53 6.59 54.53 6.47 L 54.53 5.91 C 54.53 5.79 54.44 5.64 54.34 5.58 L 53.86 5.3 C 53.75 5.24 53.58 5.24 53.48 5.3 L 53 5.58 C 52.89 5.64 52.81 5.79 52.81 5.91 L 52.81 6.47 Z M 48.69 5.81 C 48.69 5.93 48.78 6.08 48.88 6.14 L 49.36 6.42 C 49.47 6.48 49.64 6.48 49.74 6.42 L 50.22 6.14 C 50.33 6.08 50.41 5.93 50.41 5.81 L 50.41 5.26 C 50.41 5.14 50.32 4.99 50.22 4.93 L 49.74 4.65 C 49.64 4.59 49.46 4.59 49.36 4.65 L 48.88 4.93 C 48.77 4.99 48.69 5.14 48.69 5.26 L 48.69 5.81 Z M 49.12 1.7 C 49.12 1.82 49.21 1.97 49.31 2.03 L 49.79 2.31 C 49.9 2.37 50.07 2.37 50.17 2.31 L 50.65 2.03 C 50.75 1.97 50.84 1.82 50.84 1.7 L 50.84 1.14 C 50.84 1.02 50.75 0.87 50.65 0.81 L 50.17 0.53 C 50.06 0.47 49.89 0.47 49.79 0.53 L 49.31 0.81 C 49.2 0.87 49.12 1.02 49.12 1.14 L 49.12 1.7 Z M 44.52 1.46 C 44.52 1.58 44.61 1.73 44.71 1.79 L 45.19 2.07 C 45.3 2.13 45.47 2.13 45.58 2.07 L 46.06 1.79 C 46.17 1.73 46.25 1.58 46.25 1.46 L 46.25 0.9 C 46.25 0.78 46.16 0.63 46.06 0.57 L 45.58 0.29 C 45.47 0.23 45.3 0.23 45.19 0.29 L 44.71 0.57 C 44.6 0.63 44.52 0.78 44.52 0.9 L 44.52 1.46 Z M 44.52 5.6 C 44.52 5.72 44.61 5.87 44.71 5.93 L 45.19 6.21 C 45.3 6.27 45.47 6.27 45.58 6.21 L 46.06 5.93 C 46.17 5.87 46.25 5.72 46.25 5.6 L 46.25 5.04 C 46.25 4.92 46.16 4.77 46.06 4.71 L 45.58 4.43 C 45.47 4.37 45.3 4.37 45.19 4.43 L 44.71 4.71 C 44.6 4.77 44.52 4.92 44.52 5.04 L 44.52 5.6 Z M 44.52 9.73 C 44.52 9.85 44.61 10 44.71 10.06 L 45.19 10.34 C 45.3 10.4 45.47 10.4 45.58 10.34 L 46.06 10.06 C 46.17 10 46.25 9.85 46.25 9.73 L 46.25 9.18 C 46.25 9.06 46.16 8.91 46.06 8.85 L 45.58 8.57 C 45.47 8.51 45.3 8.51 45.19 8.57 L 44.71 8.85 C 44.6 8.91 44.52 9.06 44.52 9.18 L 44.52 9.73 Z M 40.78 9.93 C 40.78 10.05 40.87 10.2 40.97 10.26 L 41.45 10.54 C 41.55 10.6 41.73 10.6 41.83 10.54 L 42.31 10.26 C 42.41 10.2 42.5 10.05 42.5 9.93 L 42.5 9.37 C 42.5 9.25 42.41 9.1 42.31 9.04 L 41.83 8.76 C 41.73 8.7 41.55 8.7 41.45 8.76 L 40.97 9.04 C 40.86 9.1 40.78 9.25 40.78 9.37 L 40.78 9.93 Z M 40.36 5.81 C 40.36 5.93 40.45 6.08 40.55 6.14 L 41.03 6.42 C 41.13 6.48 41.31 6.48 41.41 6.42 L 41.89 6.14 C 41.99 6.08 42.08 5.93 42.08 5.81 L 42.08 5.26 C 42.08 5.14 41.99 4.99 41.89 4.93 L 41.41 4.65 C 41.3 4.59 41.13 4.59 41.03 4.65 L 40.55 4.93 C 40.44 4.99 40.36 5.14 40.36 5.26 L 40.36 5.81 Z M 39.93 1.7 C 39.93 1.82 40.02 1.97 40.12 2.03 L 40.6 2.31 C 40.71 2.37 40.88 2.37 40.98 2.31 L 41.46 2.03 C 41.57 1.97 41.65 1.82 41.65 1.7 L 41.65 1.14 C 41.65 1.02 41.56 0.87 41.46 0.81 L 40.98 0.53 C 40.87 0.47 40.7 0.47 40.6 0.53 L 40.12 0.81 C 40.01 0.87 39.93 1.02 39.93 1.14 L 39.93 1.7 Z M 35.39 2.43 C 35.39 2.55 35.48 2.7 35.58 2.76 L 36.06 3.04 C 36.17 3.1 36.34 3.1 36.44 3.04 L 36.92 2.76 C 37.03 2.7 37.11 2.55 37.11 2.43 L 37.11 1.87 C 37.11 1.75 37.03 1.6 36.92 1.54 L 36.44 1.26 C 36.33 1.2 36.16 1.2 36.06 1.26 L 35.58 1.54 C 35.47 1.6 35.39 1.75 35.39 1.87 L 35.39 2.43 Z M 36.24 6.47 C 36.24 6.59 36.33 6.74 36.43 6.8 L 36.91 7.08 C 37.01 7.14 37.19 7.14 37.29 7.08 L 37.77 6.8 C 37.88 6.74 37.96 6.59 37.96 6.47 L 37.96 5.92 C 37.96 5.8 37.87 5.65 37.77 5.59 L 37.29 5.31 C 37.19 5.25 37.01 5.25 36.91 5.31 L 36.43 5.59 C 36.33 5.65 36.24 5.8 36.24 5.92 L 36.24 6.47 Z M 32.21 7.56 C 32.21 7.68 32.3 7.83 32.4 7.89 L 32.88 8.17 C 32.98 8.23 33.16 8.23 33.26 8.17 L 33.74 7.89 C 33.85 7.83 33.93 7.68 33.93 7.56 L 33.93 7 C 33.93 6.88 33.84 6.73 33.74 6.67 L 33.26 6.39 C 33.15 6.33 32.98 6.33 32.88 6.39 L 32.4 6.67 C 32.29 6.73 32.21 6.88 32.21 7 L 32.21 7.56 Z M 30.94 3.63 C 30.94 3.75 31.03 3.9 31.13 3.96 L 31.61 4.24 C 31.72 4.3 31.89 4.3 31.99 4.24 L 32.47 3.96 C 32.58 3.9 32.66 3.75 32.66 3.63 L 32.66 3.08 C 32.66 2.96 32.57 2.81 32.47 2.75 L 31.99 2.47 C 31.88 2.41 31.71 2.41 31.61 2.47 L 31.13 2.75 C 31.02 2.81 30.94 2.96 30.94 3.08 L 30.94 3.63 Z M 26.65 5.29 C 26.65 5.41 26.74 5.56 26.84 5.62 L 27.32 5.9 C 27.43 5.96 27.6 5.96 27.7 5.9 L 28.18 5.62 C 28.29 5.56 28.37 5.41 28.37 5.29 L 28.37 4.73 C 28.37 4.61 28.28 4.46 28.18 4.4 L 27.7 4.12 C 27.59 4.06 27.42 4.06 27.32 4.12 L 26.84 4.4 C 26.73 4.46 26.65 4.61 26.65 4.73 L 26.65 5.29 Z M 28.32 9.07 C 28.32 9.19 28.41 9.34 28.51 9.4 L 28.99 9.68 C 29.1 9.74 29.27 9.74 29.37 9.68 L 29.85 9.4 C 29.96 9.34 30.04 9.19 30.04 9.07 L 30.04 8.51 C 30.04 8.39 29.95 8.24 29.85 8.18 L 29.37 7.9 C 29.26 7.84 29.09 7.84 28.99 7.9 L 28.51 8.18 C 28.4 8.24 28.32 8.39 28.32 8.51 L 28.32 9.07 Z M 22.55 7.39 C 22.55 7.51 22.64 7.66 22.74 7.72 L 23.22 8 C 23.32 8.06 23.5 8.06 23.6 8 L 24.08 7.72 C 24.18 7.66 24.27 7.51 24.27 7.39 L 24.27 6.83 C 24.27 6.71 24.18 6.56 24.08 6.5 L 23.6 6.22 C 23.49 6.16 23.32 6.16 23.22 6.22 L 22.74 6.5 C 22.63 6.56 22.55 6.71 22.55 6.83 L 22.55 7.39 Z M 18.69 9.92 C 18.69 10.04 18.77 10.19 18.88 10.25 L 19.36 10.53 C 19.46 10.59 19.64 10.59 19.74 10.53 L 20.22 10.25 C 20.32 10.19 20.41 10.04 20.41 9.92 L 20.41 9.36 C 20.41 9.24 20.32 9.09 20.22 9.03 L 19.74 8.75 C 19.63 8.69 19.46 8.69 19.36 8.75 L 18.88 9.03 C 18.77 9.09 18.69 9.24 18.69 9.36 L 18.69 9.92 Z M 15.11 12.84 C 15.11 12.96 15.2 13.11 15.3 13.17 L 15.78 13.45 C 15.88 13.51 16.06 13.51 16.16 13.45 L 16.64 13.17 C 16.75 13.11 16.83 12.96 16.83 12.84 L 16.83 12.28 C 16.83 12.16 16.74 12.01 16.64 11.95 L 16.16 11.67 C 16.05 11.61 15.88 11.61 15.78 11.67 L 15.3 11.95 C 15.2 12.01 15.11 12.16 15.11 12.28 L 15.11 12.84 Z M 11.86 16.12 C 11.86 16.24 11.95 16.39 12.05 16.45 L 12.53 16.73 C 12.63 16.79 12.81 16.79 12.91 16.73 L 13.39 16.45 C 13.5 16.39 13.58 16.24 13.58 16.12 L 13.58 15.57 C 13.58 15.45 13.49 15.3 13.39 15.24 L 12.91 14.96 C 12.8 14.9 12.63 14.9 12.53 14.96 L 12.05 15.24 C 11.95 15.3 11.86 15.45 11.86 15.57 L 11.86 16.12 Z M 51.96 10.51 C 51.96 10.63 52.05 10.78 52.15 10.84 L 52.63 11.12 C 52.74 11.18 52.91 11.18 53.01 11.12 L 53.49 10.84 C 53.6 10.78 53.68 10.63 53.68 10.51 L 53.68 9.95 C 53.68 9.83 53.59 9.68 53.49 9.62 L 53.01 9.34 C 52.91 9.28 52.73 9.28 52.63 9.34 L 52.15 9.62 C 52.05 9.68 51.96 9.83 51.96 9.95 L 51.96 10.51 Z M 48.26 9.92 C 48.26 10.04 48.35 10.19 48.45 10.25 L 48.93 10.53 C 49.04 10.59 49.21 10.59 49.31 10.53 L 49.79 10.25 C 49.89 10.19 49.98 10.04 49.98 9.92 L 49.98 9.36 C 49.98 9.24 49.89 9.09 49.79 9.03 L 49.31 8.75 C 49.2 8.69 49.03 8.69 48.93 8.75 L 48.45 9.03 C 48.35 9.09 48.26 9.24 48.26 9.36 L 48.26 9.92 Z M 55.58 11.49 C 55.58 11.61 55.67 11.76 55.77 11.82 L 56.25 12.1 C 56.35 12.16 56.53 12.16 56.63 12.1 L 57.11 11.82 C 57.22 11.76 57.3 11.61 57.3 11.49 L 57.3 10.93 C 57.3 10.81 57.21 10.66 57.11 10.6 L 56.63 10.32 C 56.52 10.26 56.35 10.26 56.25 10.32 L 55.77 10.6 C 55.66 10.66 55.58 10.81 55.58 10.93 L 55.58 11.49 Z M 59.07 12.84 C 59.07 12.96 59.16 13.11 59.26 13.17 L 59.74 13.45 C 59.85 13.51 60.02 13.51 60.12 13.45 L 60.6 13.17 C 60.71 13.11 60.79 12.96 60.79 12.84 L 60.79 12.28 C 60.79 12.16 60.7 12.01 60.6 11.95 L 60.12 11.67 C 60.01 11.61 59.84 11.61 59.74 11.67 L 59.26 11.95 C 59.16 12.01 59.07 12.16 59.07 12.28 L 59.07 12.84 Z M 57.4 16.61 C 57.4 16.73 57.49 16.88 57.59 16.94 L 58.07 17.22 C 58.18 17.28 58.35 17.28 58.46 17.22 L 58.94 16.94 C 59.04 16.88 59.13 16.73 59.13 16.61 L 59.13 16.06 C 59.13 15.94 59.04 15.79 58.94 15.73 L 58.46 15.45 C 58.35 15.39 58.18 15.39 58.07 15.45 L 57.59 15.73 C 57.48 15.79 57.4 15.94 57.4 16.06 L 57.4 16.61 Z M 60.35 18.14 C 60.35 18.26 60.44 18.41 60.54 18.47 L 61.02 18.75 C 61.12 18.81 61.3 18.81 61.4 18.75 L 61.88 18.47 C 61.99 18.41 62.07 18.26 62.07 18.14 L 62.07 17.58 C 62.07 17.46 61.98 17.31 61.88 17.25 L 61.4 16.97 C 61.29 16.91 61.12 16.91 61.02 16.97 L 60.54 17.25 C 60.43 17.31 60.35 17.46 60.35 17.58 L 60.35 18.14 Z M 54.3 15.42 C 54.3 15.54 54.39 15.69 54.49 15.75 L 54.97 16.03 C 55.08 16.09 55.25 16.09 55.35 16.03 L 55.83 15.75 C 55.93 15.69 56.02 15.54 56.02 15.42 L 56.02 14.87 C 56.02 14.75 55.93 14.6 55.83 14.54 L 55.35 14.26 C 55.24 14.2 55.07 14.2 54.97 14.26 L 54.49 14.54 C 54.38 14.6 54.3 14.75 54.3 14.87 L 54.3 15.42 Z M 53.66 2.43 C 53.66 2.55 53.75 2.7 53.85 2.76 L 54.33 3.04 C 54.44 3.1 54.61 3.1 54.71 3.04 L 55.19 2.76 C 55.3 2.7 55.38 2.55 55.38 2.43 L 55.38 1.87 C 55.38 1.75 55.29 1.6 55.19 1.54 L 54.71 1.26 C 54.6 1.2 54.43 1.2 54.33 1.26 L 53.85 1.54 C 53.74 1.6 53.66 1.75 53.66 1.87 L 53.66 2.43 Z M 65.54 16.61 C 65.54 16.73 65.63 16.88 65.73 16.94 L 66.21 17.22 C 66.32 17.28 66.49 17.28 66.59 17.22 L 67.07 16.94 C 67.18 16.88 67.26 16.73 67.26 16.61 L 67.26 16.06 C 67.26 15.94 67.17 15.79 67.07 15.73 L 66.59 15.45 C 66.48 15.39 66.31 15.39 66.21 15.45 L 65.73 15.73 C 65.62 15.79 65.54 15.94 65.54 16.06 L 65.54 16.61 Z M 62.4 14.55 C 62.4 14.67 62.49 14.82 62.59 14.88 L 63.07 15.16 C 63.18 15.22 63.35 15.22 63.45 15.16 L 63.93 14.88 C 64.03 14.82 64.12 14.67 64.12 14.55 L 64.12 14 C 64.12 13.88 64.03 13.73 63.93 13.67 L 63.45 13.39 C 63.34 13.33 63.17 13.33 63.07 13.39 L 62.59 13.67 C 62.49 13.73 62.4 13.88 62.4 14 L 62.4 14.55 Z M 66.81 29.43 C 66.81 29.55 66.9 29.7 67 29.76 L 67.48 30.04 C 67.58 30.1 67.76 30.1 67.86 30.04 L 68.34 29.76 C 68.44 29.7 68.53 29.55 68.53 29.43 L 68.53 28.88 C 68.53 28.76 68.44 28.61 68.34 28.55 L 67.86 28.27 C 67.76 28.21 67.58 28.21 67.48 28.27 L 67 28.55 C 66.9 28.61 66.81 28.76 66.81 28.88 L 66.81 29.43 Z M 70.72 37.17 C 70.72 37.29 70.81 37.44 70.91 37.5 L 71.39 37.78 C 71.5 37.84 71.67 37.84 71.77 37.78 L 72.25 37.5 C 72.36 37.44 72.44 37.29 72.44 37.17 L 72.44 36.61 C 72.44 36.49 72.35 36.34 72.25 36.28 L 71.77 36 C 71.66 35.94 71.49 35.94 71.39 36 L 70.91 36.28 C 70.8 36.34 70.72 36.49 70.72 36.61 L 70.72 37.17 Z M 71.47 39.97 C 71.47 40.09 71.56 40.24 71.66 40.3 L 72.14 40.58 C 72.24 40.64 72.42 40.64 72.52 40.58 L 73 40.3 C 73.11 40.24 73.19 40.09 73.19 39.97 L 73.19 39.42 C 73.19 39.3 73.1 39.15 73 39.09 L 72.52 38.81 C 72.41 38.75 72.24 38.75 72.14 38.81 L 71.66 39.09 C 71.55 39.15 71.47 39.3 71.47 39.42 L 71.47 39.97 Z M 71.92 42.84 C 71.92 42.96 72.01 43.11 72.11 43.17 L 72.59 43.45 C 72.7 43.51 72.87 43.51 72.97 43.45 L 73.45 43.17 C 73.56 43.11 73.64 42.96 73.64 42.84 L 73.64 42.28 C 73.64 42.16 73.55 42.01 73.45 41.95 L 72.97 41.67 C 72.86 41.61 72.69 41.61 72.59 41.67 L 72.11 41.95 C 72 42.01 71.92 42.16 71.92 42.28 L 71.92 42.84 Z M 86.34 59.43 C 86.34 59.55 86.43 59.7 86.53 59.76 L 87.01 60.04 C 87.11 60.1 87.29 60.1 87.39 60.04 L 87.87 59.76 C 87.98 59.7 88.06 59.55 88.06 59.43 L 88.06 58.88 C 88.06 58.76 87.97 58.61 87.87 58.55 L 87.39 58.27 C 87.28 58.21 87.11 58.21 87.01 58.27 L 86.53 58.55 C 86.43 58.61 86.34 58.76 86.34 58.88 L 86.34 59.43 Z M 71.47 51.51 C 71.47 51.63 71.56 51.78 71.66 51.84 L 72.14 52.12 C 72.25 52.18 72.42 52.18 72.52 52.12 L 73 51.84 C 73.11 51.78 73.19 51.63 73.19 51.51 L 73.19 50.95 C 73.19 50.83 73.1 50.68 73 50.62 L 72.52 50.34 C 72.41 50.28 72.24 50.28 72.14 50.34 L 71.66 50.62 C 71.55 50.68 71.47 50.83 71.47 50.95 L 71.47 51.51 Z M 75.49 52.37 C 75.49 52.49 75.58 52.64 75.68 52.7 L 76.16 52.98 C 76.27 53.04 76.44 53.04 76.54 52.98 L 77.02 52.7 C 77.12 52.64 77.21 52.49 77.21 52.37 L 77.21 51.81 C 77.21 51.69 77.12 51.54 77.02 51.48 L 76.54 51.2 C 76.44 51.14 76.26 51.14 76.16 51.2 L 75.68 51.48 C 75.57 51.54 75.49 51.69 75.49 51.81 L 75.49 52.37 Z M 65.7 69.44 C 65.7 69.56 65.79 69.71 65.89 69.77 L 66.37 70.05 C 66.47 70.11 66.65 70.11 66.75 70.05 L 67.23 69.77 C 67.33 69.71 67.42 69.56 67.42 69.44 L 67.42 68.89 C 67.42 68.77 67.33 68.62 67.23 68.56 L 66.75 68.28 C 66.64 68.22 66.47 68.22 66.37 68.28 L 65.89 68.56 C 65.78 68.62 65.7 68.77 65.7 68.89 L 65.7 69.44 Z M 62.96 66.37 C 62.96 66.49 63.05 66.64 63.15 66.7 L 63.63 66.98 C 63.74 67.04 63.91 67.04 64.01 66.98 L 64.49 66.7 C 64.6 66.64 64.68 66.49 64.68 66.37 L 64.68 65.82 C 64.68 65.7 64.6 65.55 64.49 65.49 L 64.01 65.21 C 63.9 65.15 63.73 65.15 63.63 65.21 L 63.15 65.49 C 63.04 65.55 62.96 65.7 62.96 65.82 L 62.96 66.37 Z M 65 64.32 C 65 64.44 65.09 64.59 65.19 64.65 L 65.67 64.93 C 65.78 64.99 65.95 64.99 66.06 64.93 L 66.54 64.65 C 66.65 64.59 66.73 64.44 66.73 64.32 L 66.73 63.76 C 66.73 63.64 66.64 63.49 66.54 63.43 L 66.06 63.15 C 65.95 63.09 65.78 63.09 65.67 63.15 L 65.19 63.43 C 65.09 63.49 65 63.64 65 63.76 L 65 64.32 Z M 68.05 67.09 C 68.05 67.21 68.14 67.36 68.24 67.42 L 68.72 67.7 C 68.83 67.76 69 67.76 69.1 67.7 L 69.58 67.42 C 69.68 67.36 69.77 67.21 69.77 67.09 L 69.77 66.54 C 69.77 66.42 69.68 66.27 69.58 66.21 L 69.1 65.93 C 68.99 65.87 68.82 65.87 68.72 65.93 L 68.24 66.21 C 68.14 66.27 68.05 66.42 68.05 66.54 L 68.05 67.09 Z M 71.1 69.85 C 71.1 69.97 71.19 70.12 71.29 70.18 L 71.77 70.46 C 71.88 70.52 72.05 70.52 72.15 70.46 L 72.63 70.18 C 72.73 70.12 72.82 69.97 72.82 69.85 L 72.82 69.29 C 72.82 69.17 72.73 69.02 72.63 68.96 L 72.15 68.68 C 72.04 68.62 71.87 68.62 71.77 68.68 L 71.29 68.96 C 71.18 69.02 71.1 69.17 71.1 69.29 L 71.1 69.85 Z M 74.14 72.62 C 74.14 72.74 74.23 72.89 74.33 72.95 L 74.81 73.23 C 74.92 73.29 75.09 73.29 75.19 73.23 L 75.67 72.95 C 75.77 72.89 75.86 72.74 75.86 72.62 L 75.86 72.06 C 75.86 71.94 75.77 71.79 75.67 71.73 L 75.19 71.45 C 75.08 71.39 74.91 71.39 74.81 71.45 L 74.33 71.73 C 74.22 71.79 74.14 71.94 74.14 72.06 L 74.14 72.62 Z M 68.45 72.51 C 68.45 72.63 68.54 72.78 68.64 72.84 L 69.12 73.12 C 69.23 73.18 69.4 73.18 69.5 73.12 L 69.98 72.84 C 70.09 72.78 70.17 72.63 70.17 72.51 L 70.17 71.96 C 70.17 71.84 70.08 71.69 69.98 71.63 L 69.5 71.35 C 69.4 71.29 69.22 71.29 69.12 71.35 L 68.64 71.63 C 68.53 71.69 68.45 71.84 68.45 71.96 L 68.45 72.51 Z M 57.4 74.87 C 57.4 74.99 57.49 75.14 57.59 75.2 L 58.07 75.48 C 58.18 75.54 58.35 75.54 58.45 75.48 L 58.93 75.2 C 59.03 75.14 59.12 74.99 59.12 74.87 L 59.12 74.32 C 59.12 74.2 59.03 74.05 58.93 73.99 L 58.45 73.71 C 58.34 73.65 58.17 73.65 58.07 73.71 L 57.59 73.99 C 57.49 74.05 57.4 74.2 57.4 74.32 L 57.4 74.87 Z M 64.46 80.51 C 64.46 80.63 64.55 80.78 64.65 80.84 L 65.13 81.12 C 65.24 81.18 65.41 81.18 65.51 81.12 L 65.99 80.84 C 66.1 80.78 66.18 80.63 66.18 80.51 L 66.18 79.96 C 66.18 79.84 66.09 79.69 65.99 79.63 L 65.51 79.35 C 65.4 79.29 65.23 79.29 65.13 79.35 L 64.65 79.63 C 64.54 79.69 64.46 79.84 64.46 79.96 L 64.46 80.51 Z M 40.36 85.67 C 40.36 85.79 40.45 85.94 40.55 86 L 41.03 86.28 C 41.13 86.34 41.31 86.34 41.41 86.28 L 41.89 86 C 42 85.94 42.08 85.79 42.08 85.67 L 42.08 85.12 C 42.08 85 41.99 84.85 41.89 84.79 L 41.41 84.51 C 41.3 84.45 41.13 84.45 41.03 84.51 L 40.55 84.79 C 40.44 84.85 40.36 85 40.36 85.12 L 40.36 85.67 Z M 44.53 85.89 C 44.53 86.01 44.61 86.16 44.72 86.22 L 45.2 86.5 C 45.31 86.56 45.48 86.56 45.58 86.5 L 46.06 86.22 C 46.16 86.16 46.25 86.01 46.25 85.89 L 46.25 85.33 C 46.25 85.21 46.16 85.06 46.06 85 L 45.58 84.72 C 45.47 84.66 45.3 84.66 45.2 84.72 L 44.72 85 C 44.61 85.06 44.53 85.21 44.53 85.33 L 44.53 85.89 Z M 44.53 90.03 C 44.53 90.15 44.61 90.3 44.72 90.36 L 45.2 90.64 C 45.3 90.7 45.48 90.7 45.58 90.64 L 46.06 90.36 C 46.16 90.3 46.25 90.15 46.25 90.03 L 46.25 89.48 C 46.25 89.36 46.16 89.21 46.06 89.15 L 45.58 88.87 C 45.48 88.81 45.3 88.81 45.2 88.87 L 44.72 89.15 C 44.61 89.21 44.53 89.36 44.53 89.48 L 44.53 90.03 Z M 49.13 89.79 C 49.13 89.91 49.22 90.06 49.32 90.12 L 49.8 90.4 C 49.91 90.46 50.08 90.46 50.18 90.4 L 50.66 90.12 C 50.76 90.06 50.85 89.91 50.85 89.79 L 50.85 89.23 C 50.85 89.11 50.76 88.96 50.66 88.9 L 50.18 88.62 C 50.08 88.56 49.9 88.56 49.8 88.62 L 49.32 88.9 C 49.21 88.96 49.13 89.11 49.13 89.23 L 49.13 89.79 Z M 48.7 85.67 C 48.7 85.79 48.79 85.94 48.89 86 L 49.37 86.28 C 49.48 86.34 49.65 86.34 49.75 86.28 L 50.23 86 C 50.34 85.94 50.42 85.79 50.42 85.67 L 50.42 85.12 C 50.42 85 50.33 84.85 50.23 84.79 L 49.75 84.51 C 49.64 84.45 49.47 84.45 49.37 84.51 L 48.89 84.79 C 48.78 84.85 48.7 85 48.7 85.12 L 48.7 85.67 Z M 52.82 85.02 C 52.82 85.14 52.91 85.29 53.01 85.35 L 53.49 85.63 C 53.6 85.69 53.77 85.69 53.87 85.63 L 54.35 85.35 C 54.45 85.29 54.54 85.14 54.54 85.02 L 54.54 84.46 C 54.54 84.34 54.45 84.19 54.35 84.13 L 53.87 83.85 C 53.76 83.79 53.59 83.79 53.49 83.85 L 53.01 84.13 C 52.9 84.19 52.82 84.34 52.82 84.46 L 52.82 85.02 Z M 53.67 89.06 C 53.67 89.18 53.76 89.33 53.86 89.39 L 54.34 89.67 C 54.45 89.73 54.62 89.73 54.72 89.67 L 55.2 89.39 C 55.31 89.33 55.39 89.18 55.39 89.06 L 55.39 88.5 C 55.39 88.38 55.3 88.23 55.2 88.17 L 54.72 87.89 C 54.61 87.83 54.44 87.83 54.34 87.89 L 53.86 88.17 C 53.75 88.23 53.67 88.38 53.67 88.5 L 53.67 89.06 Z M 58.12 87.86 C 58.12 87.98 58.21 88.13 58.31 88.19 L 58.79 88.47 C 58.9 88.53 59.07 88.53 59.17 88.47 L 59.65 88.19 C 59.76 88.13 59.84 87.98 59.84 87.86 L 59.84 87.3 C 59.84 87.18 59.75 87.03 59.65 86.97 L 59.17 86.69 C 59.06 86.63 58.89 86.63 58.79 86.69 L 58.31 86.97 C 58.21 87.03 58.12 87.18 58.12 87.3 L 58.12 87.86 Z M 56.85 83.92 C 56.85 84.04 56.94 84.19 57.04 84.25 L 57.52 84.53 C 57.63 84.59 57.8 84.59 57.9 84.53 L 58.38 84.25 C 58.48 84.19 58.57 84.04 58.57 83.92 L 58.57 83.36 C 58.57 83.24 58.48 83.09 58.38 83.03 L 57.9 82.75 C 57.79 82.69 57.62 82.69 57.52 82.75 L 57.04 83.03 C 56.94 83.09 56.85 83.24 56.85 83.36 L 56.85 83.92 Z M 60.74 82.43 C 60.74 82.55 60.83 82.7 60.93 82.76 L 61.41 83.04 C 61.52 83.1 61.69 83.1 61.79 83.04 L 62.27 82.76 C 62.38 82.7 62.46 82.55 62.46 82.43 L 62.46 81.88 C 62.46 81.76 62.37 81.61 62.27 81.55 L 61.79 81.27 C 61.68 81.21 61.51 81.21 61.41 81.27 L 60.93 81.55 C 60.82 81.61 60.74 81.76 60.74 81.88 L 60.74 82.43 Z M 62.41 86.2 C 62.41 86.32 62.5 86.47 62.6 86.53 L 63.08 86.81 C 63.19 86.87 63.36 86.87 63.46 86.81 L 63.94 86.53 C 64.05 86.47 64.13 86.32 64.13 86.2 L 64.13 85.64 C 64.13 85.52 64.04 85.37 63.94 85.31 L 63.46 85.03 C 63.35 84.97 63.18 84.97 63.08 85.03 L 62.6 85.31 C 62.49 85.37 62.41 85.52 62.41 85.64 L 62.41 86.2 Z M 66.51 84.1 C 66.51 84.22 66.6 84.37 66.7 84.43 L 67.18 84.71 C 67.29 84.77 67.46 84.77 67.56 84.71 L 68.04 84.43 C 68.15 84.37 68.23 84.22 68.23 84.1 L 68.23 83.55 C 68.23 83.43 68.15 83.28 68.04 83.22 L 67.56 82.94 C 67.45 82.88 67.28 82.88 67.18 82.94 L 66.7 83.22 C 66.59 83.28 66.51 83.43 66.51 83.55 L 66.51 84.1 Z M 39.94 89.79 C 39.94 89.91 40.03 90.06 40.13 90.12 L 40.61 90.4 C 40.72 90.46 40.89 90.46 40.99 90.4 L 41.47 90.12 C 41.58 90.06 41.66 89.91 41.66 89.79 L 41.66 89.23 C 41.66 89.11 41.57 88.96 41.47 88.9 L 40.99 88.62 C 40.89 88.56 40.71 88.56 40.61 88.62 L 40.13 88.9 C 40.03 88.96 39.94 89.11 39.94 89.23 L 39.94 89.79 Z M 24.41 65.46 C 24.41 65.57 24.49 65.71 24.58 65.76 L 25.54 66.31 C 25.64 66.36 25.79 66.36 25.89 66.31 L 26.85 65.76 C 26.95 65.7 27.02 65.57 27.02 65.46 L 27.02 64.35 C 27.02 64.24 26.94 64.1 26.85 64.05 L 25.89 63.5 C 25.79 63.44 25.64 63.44 25.54 63.5 L 24.58 64.05 C 24.48 64.11 24.41 64.24 24.41 64.35 L 24.41 65.46 Z M 21.59 68.28 C 21.59 68.39 21.67 68.53 21.76 68.58 L 22.72 69.13 C 22.82 69.18 22.97 69.18 23.07 69.13 L 24.03 68.58 C 24.13 68.52 24.2 68.39 24.2 68.28 L 24.2 67.17 C 24.2 67.06 24.12 66.92 24.03 66.87 L 23.07 66.32 C 22.97 66.26 22.82 66.26 22.72 66.32 L 21.76 66.87 C 21.66 66.92 21.59 67.06 21.59 67.17 L 21.59 68.28 Z M 27.67 68.27 C 27.67 68.38 27.75 68.52 27.84 68.57 L 28.8 69.12 C 28.9 69.18 29.05 69.18 29.15 69.12 L 30.11 68.57 C 30.21 68.52 30.28 68.38 30.28 68.27 L 30.28 67.16 C 30.28 67.05 30.2 66.91 30.11 66.86 L 29.15 66.31 C 29.05 66.25 28.9 66.25 28.8 66.31 L 27.84 66.86 C 27.74 66.92 27.67 67.05 27.67 67.16 L 27.67 68.27 Z M 31.32 70.53 C 31.32 70.64 31.4 70.78 31.49 70.83 L 32.45 71.38 C 32.55 71.43 32.7 71.43 32.8 71.38 L 33.76 70.83 C 33.86 70.77 33.93 70.64 33.93 70.53 L 33.93 69.42 C 33.93 69.31 33.85 69.17 33.76 69.12 L 32.8 68.57 C 32.7 68.51 32.55 68.51 32.45 68.57 L 31.49 69.12 C 31.39 69.17 31.32 69.31 31.32 69.42 L 31.32 70.53 Z M 35.28 72.18 C 35.28 72.29 35.36 72.43 35.46 72.48 L 36.42 73.03 C 36.52 73.09 36.67 73.09 36.77 73.03 L 37.73 72.48 C 37.83 72.42 37.91 72.29 37.91 72.18 L 37.91 71.07 C 37.91 70.96 37.83 70.82 37.73 70.77 L 36.77 70.22 C 36.67 70.16 36.52 70.16 36.42 70.22 L 35.46 70.77 C 35.36 70.83 35.28 70.96 35.28 71.07 L 35.28 72.18 Z M 39.45 73.19 C 39.45 73.3 39.53 73.44 39.63 73.49 L 40.59 74.04 C 40.69 74.1 40.84 74.1 40.94 74.04 L 41.9 73.49 C 42 73.43 42.08 73.3 42.08 73.19 L 42.08 72.08 C 42.08 71.97 42 71.83 41.9 71.78 L 40.94 71.23 C 40.84 71.18 40.69 71.18 40.59 71.23 L 39.63 71.78 C 39.53 71.84 39.45 71.97 39.45 72.08 L 39.45 73.19 Z M 43.72 73.53 C 43.72 73.64 43.8 73.78 43.9 73.83 L 44.86 74.38 C 44.96 74.44 45.11 74.44 45.21 74.38 L 46.17 73.83 C 46.27 73.77 46.34 73.64 46.34 73.53 L 46.34 72.42 C 46.34 72.31 46.26 72.17 46.17 72.12 L 45.21 71.57 C 45.11 71.52 44.96 71.52 44.86 71.57 L 43.9 72.12 C 43.8 72.18 43.72 72.31 43.72 72.42 L 43.72 73.53 Z M 43.68 77.52 C 43.68 77.63 43.76 77.77 43.85 77.82 L 44.81 78.37 C 44.91 78.43 45.06 78.43 45.16 78.37 L 46.12 77.82 C 46.22 77.76 46.29 77.63 46.29 77.52 L 46.29 76.41 C 46.29 76.3 46.21 76.16 46.12 76.11 L 45.16 75.56 C 45.06 75.51 44.91 75.51 44.81 75.56 L 43.85 76.11 C 43.75 76.17 43.68 76.3 43.68 76.41 L 43.68 77.52 Z M 38.79 77.11 C 38.79 77.22 38.87 77.36 38.96 77.41 L 39.92 77.97 C 40.02 78.02 40.17 78.02 40.27 77.97 L 41.23 77.41 C 41.33 77.35 41.41 77.22 41.41 77.11 L 41.41 76 C 41.41 75.89 41.33 75.75 41.23 75.7 L 40.27 75.15 C 40.17 75.09 40.02 75.09 39.92 75.15 L 38.96 75.7 C 38.86 75.75 38.79 75.89 38.79 76 L 38.79 77.11 Z M 34.03 75.95 C 34.03 76.06 34.11 76.2 34.21 76.25 L 35.17 76.8 C 35.27 76.86 35.42 76.86 35.52 76.8 L 36.48 76.25 C 36.58 76.19 36.65 76.06 36.65 75.95 L 36.65 74.84 C 36.65 74.73 36.57 74.59 36.48 74.54 L 35.52 73.99 C 35.42 73.93 35.27 73.93 35.17 73.99 L 34.21 74.54 C 34.11 74.59 34.03 74.73 34.03 74.84 L 34.03 75.95 Z M 29.5 74.07 C 29.5 74.18 29.58 74.32 29.68 74.37 L 30.64 74.92 C 30.74 74.97 30.89 74.97 30.99 74.92 L 31.95 74.37 C 32.05 74.31 32.13 74.18 32.13 74.07 L 32.13 72.96 C 32.13 72.85 32.05 72.71 31.95 72.66 L 30.99 72.11 C 30.89 72.05 30.74 72.05 30.64 72.11 L 29.68 72.66 C 29.58 72.72 29.5 72.85 29.5 72.96 L 29.5 74.07 Z M 27.61 77.69 C 27.61 77.8 27.69 77.94 27.78 77.99 L 28.74 78.54 C 28.84 78.6 28.99 78.6 29.09 78.54 L 30.05 77.99 C 30.15 77.93 30.22 77.8 30.22 77.69 L 30.22 76.58 C 30.22 76.47 30.14 76.33 30.05 76.28 L 29.09 75.73 C 28.99 75.68 28.84 75.68 28.74 75.73 L 27.78 76.28 C 27.68 76.34 27.61 76.47 27.61 76.58 L 27.61 77.69 Z M 25.32 71.49 C 25.32 71.6 25.4 71.74 25.49 71.79 L 26.45 72.34 C 26.55 72.4 26.7 72.4 26.8 72.34 L 27.76 71.79 C 27.86 71.73 27.94 71.6 27.94 71.49 L 27.94 70.38 C 27.94 70.27 27.86 70.13 27.76 70.08 L 26.8 69.53 C 26.7 69.47 26.55 69.47 26.45 69.53 L 25.49 70.08 C 25.39 70.13 25.32 70.27 25.32 70.38 L 25.32 71.49 Z M 22.89 74.77 C 22.89 74.88 22.97 75.02 23.06 75.07 L 24.02 75.62 C 24.12 75.67 24.27 75.67 24.37 75.62 L 25.33 75.07 C 25.43 75.01 25.51 74.88 25.51 74.77 L 25.51 73.66 C 25.51 73.55 25.43 73.41 25.33 73.36 L 24.37 72.81 C 24.27 72.75 24.12 72.75 24.02 72.81 L 23.06 73.36 C 22.96 73.42 22.89 73.55 22.89 73.66 L 22.89 74.77 Z M 48 73.19 C 48 73.3 48.08 73.44 48.18 73.49 L 49.14 74.04 C 49.24 74.1 49.39 74.1 49.49 74.04 L 50.45 73.49 C 50.55 73.43 50.62 73.3 50.62 73.19 L 50.62 72.08 C 50.62 71.97 50.54 71.83 50.45 71.78 L 49.49 71.23 C 49.39 71.18 49.24 71.18 49.14 71.23 L 48.18 71.78 C 48.08 71.84 48 71.97 48 72.08 L 48 73.19 Z M 52.17 72.18 C 52.17 72.29 52.25 72.43 52.35 72.48 L 53.31 73.03 C 53.41 73.09 53.56 73.09 53.66 73.03 L 54.62 72.48 C 54.72 72.42 54.79 72.29 54.79 72.18 L 54.79 71.07 C 54.79 70.96 54.71 70.82 54.62 70.76 L 53.66 70.21 C 53.56 70.16 53.41 70.16 53.31 70.21 L 52.35 70.76 C 52.25 70.82 52.17 70.95 52.17 71.07 L 52.17 72.18 Z M 21.62 29.83 C 21.62 29.94 21.7 30.08 21.79 30.13 L 22.75 30.68 C 22.85 30.74 23 30.74 23.1 30.68 L 24.06 30.13 C 24.16 30.07 24.24 29.94 24.24 29.83 L 24.24 28.72 C 24.24 28.61 24.16 28.47 24.06 28.42 L 23.1 27.87 C 23 27.81 22.85 27.81 22.75 27.87 L 21.79 28.42 C 21.69 28.48 21.62 28.61 21.62 28.72 L 21.62 29.83 Z" style="fill-rule: nonzero; transform-box: fill-box; transform-origin: 50% 50%; fill: url(#color-0-0); paint-order: stroke markers;"></path>
  </g>
</svg>