<svg xmlns="http://www.w3.org/2000/svg" viewBox="0 4.294 142.331 255.215">
  <path fill="#003EF8" opacity="1.000000" stroke="none" d="M 88.154 256.326 C 67.127 255.802 47.795 250.759 32.442 235.265 C 22.02 224.748 17.189 211.658 16.152 197.239 C 13.833 165.001 22.801 134.883 34.424 105.379 C 35.11 103.639 37.342 101.937 39.217 101.325 C 62.004 93.876 84.858 86.629 107.703 79.353 C 109.701 78.717 111.755 78.253 114.173 77.605 C 108.319 86.577 102.733 95.138 96.738 104.106 C 95.243 106.305 94.097 108.065 93.085 109.899 C 86.692 121.488 80.024 132.942 74.075 144.756 C 70.816 151.228 68.767 158.312 66.205 165.132 C 61.68 177.178 59.056 189.519 61.08 202.437 C 64.145 221.994 73.271 237.297 92.188 245.323 C 95.628 246.783 99.449 247.344 103.476 248.373 C 111.065 250.913 118.543 253.03 126.099 252.317 C 115.076 253.433 104.503 254.817 93.37 255.974 C 91.699 256.148 89.869 256.294 88.154 256.326 Z" style="stroke-width: 1;"></path>
  <path fill="#0055FE" opacity="1.000000" stroke="none" d="M 103.843 248.49 C 100.197 247.514 95.628 246.783 92.188 245.323 C 73.271 237.297 64.145 221.994 61.08 202.437 C 59.056 189.519 61.68 177.178 66.205 165.132 C 68.767 158.312 70.816 151.228 74.075 144.756 C 80.024 132.942 86.692 121.488 93.085 109.899 C 94.097 108.065 95.243 106.305 96.667 104.452 C 106.509 101.977 116.012 99.561 125.965 97.031 C 120.701 104.041 115.79 110.579 110.319 117.384 C 109.596 117.988 109.434 118.323 109.272 118.658 C 109.272 118.658 109.23 118.471 108.994 118.619 C 106.803 122.217 104.93 125.716 102.88 129.107 C 87.243 154.963 74.204 181.661 76.162 213.077 C 76.372 216.46 77.052 220.107 78.603 223.059 C 84.259 233.815 92.667 242.993 103.843 248.49 Z" style="stroke-width: 1;"></path>
  <path fill="#0185FC" opacity="1.000000" stroke="none" d="M 103.476 248.373 C 91.919 242.823 84.259 233.815 78.603 223.059 C 77.052 220.107 76.372 216.46 76.162 213.077 C 74.204 181.661 87.243 154.963 102.88 129.107 C 104.93 125.716 106.803 122.217 109.09 118.625 C 110.126 118.872 110.979 119.741 111.512 119.577 C 118.123 117.541 124.688 115.355 132.682 112.744 C 128.545 118.137 125.211 122.438 121.926 126.775 C 105.503 148.452 93.976 172.432 88.575 199.146 C 86.625 208.789 86.171 218.61 89.314 228.201 C 93.901 242.198 107.544 250.971 125.635 251.658 C 126.082 251.93 126.103 252.329 126.103 252.329 C 118.283 253.337 111.065 250.913 103.476 248.373 Z" style="stroke-width: 1;"></path>
  <path d="M 58.477 19.418 C 58.477 17.729 59.87 16.365 61.593 16.365 L 64.71 16.365 C 66.431 16.365 67.825 17.729 67.825 19.418 L 67.825 32.864 L 79.701 26.145 C 81.191 25.308 83.098 25.802 83.955 27.263 L 85.512 29.907 C 86.37 31.366 85.863 33.235 84.374 34.075 L 72.495 40.793 L 84.374 47.508 C 85.863 48.349 86.379 50.22 85.512 51.681 L 83.955 54.323 C 83.098 55.782 81.191 56.285 79.701 55.438 L 67.825 48.722 L 67.825 62.165 C 67.825 63.855 66.431 65.218 64.71 65.218 L 61.593 65.218 C 59.87 65.218 58.477 63.855 58.477 62.165 L 58.477 48.722 L 46.6 55.449 C 45.11 56.285 43.202 55.792 42.345 54.332 L 40.787 51.688 C 39.931 50.228 40.438 48.36 41.929 47.52 L 53.805 40.793 L 41.929 34.075 C 40.438 33.235 39.931 31.366 40.787 29.907 L 42.345 27.263 C 43.202 25.792 45.11 25.298 46.6 26.136 L 58.477 32.855 L 58.477 19.418 Z" style="stroke-width: 1; fill: rgb(0, 62, 248);"></path>
  <path d="M 77.96 55.213 C 77.281 39.905 63.638 26.601 46.303 26.601 C 28.975 26.601 15.871 39.512 14.921 54.559" stroke-linecap="round" stroke-linejoin="round" style="fill: rgba(0, 0, 0, 0); stroke-width: 4; stroke: rgb(0, 62, 248); transform-origin: 46.44px 40.907px;" transform="matrix(0, -1, 1, 0, 0.000008, 0)"></path>
  <path d="M 112.511 26.82 C 111.561 42.249 98.475 54.891 80.99 54.891 C 63.511 54.891 50.286 42.118 49.607 26.952" stroke-linecap="round" stroke-linejoin="round" style="fill: rgba(0, 0, 0, 0); stroke-width: 4; stroke: rgb(0, 62, 248); transform-origin: 80.992px 40.921px;" transform="matrix(0, -1, 1, 0, -0.000002, -0.000001)"></path>
</svg>