<svg version="1.1" id="Layer_1" xmlns="http://www.w3.org/2000/svg" xmlns:xlink="http://www.w3.org/1999/xlink" x="0px" y="0px" width="100%" viewBox="77.069 553.545 865.613 234.676" enable-background="new 0 0 1024 1536">
  <defs></defs>
  <path opacity="1.000000" stroke="none" d="
M656.000000,612.998962 
	C685.324707,612.998779 714.149353,612.999390 742.974060,612.998169 
	C757.245483,612.997559 764.853943,619.508423 766.961487,633.813110 
	C767.587646,638.062866 767.948059,642.392090 767.957581,646.685974 
	C768.035095,681.841919 768.129028,716.999084 767.859497,752.153137 
	C767.819946,757.301025 766.491333,762.655457 764.703125,767.526672 
	C761.376526,776.588928 754.539185,780.581909 744.672058,780.499939 
	C704.021973,780.162231 663.363525,779.713074 622.720276,780.239380 
	C607.973389,780.430359 600.707886,768.542786 600.169556,758.241516 
	C599.440369,744.285461 599.900635,730.265625 599.904114,716.273193 
	C599.910583,690.281250 599.698181,664.284424 600.197632,638.301514 
	C600.300293,632.961487 602.431946,627.329285 604.863220,622.446777 
	C608.094604,615.957825 613.841614,612.735535 621.511902,612.925781 
	C632.834900,613.206604 644.170044,612.998779 656.000000,612.998962 
M726.722900,708.328125 
	C726.673157,708.599548 726.623413,708.871033 726.573608,709.142456 
	C726.831909,708.841553 727.090271,708.540649 726.796448,708.933960 
	C727.063232,709.420837 727.330078,709.907654 727.869324,711.043030 
	C728.252319,710.957703 728.635254,710.872375 729.018250,710.786987 
	C728.679016,710.524414 728.339783,710.261841 727.868835,709.371033 
	C727.702942,709.013306 727.537048,708.655640 726.722900,708.328125 
M694.719055,736.894104 
	C695.002869,736.589905 695.304321,736.298035 695.541443,735.960938 
	C695.563538,735.929565 695.177307,735.611145 694.980652,735.425964 
	C694.679749,735.875732 694.378845,736.325562 693.470520,736.847351 
	C693.137878,737.069336 692.805237,737.291382 691.912170,737.814270 
	C691.078491,738.431396 690.244751,739.048523 689.752319,739.413025 
	C690.183105,740.732239 690.535889,741.812500 690.311462,743.022949 
	C689.775208,743.580933 689.238892,744.138916 687.996826,744.846924 
	C676.210388,751.198669 675.672852,752.294189 667.730164,737.858948 
	C671.109619,745.845459 664.931580,746.148743 660.606506,747.855225 
	C656.942505,749.300842 653.231384,750.632324 649.512329,751.931824 
	C643.863159,753.905823 642.960266,753.292114 641.921570,746.355042 
	C641.018005,745.902039 640.114441,745.449036 639.016724,744.156677 
	C639.074829,742.438904 639.132996,740.721069 639.904663,738.984497 
	C640.607544,738.002747 641.310425,737.020935 641.890686,735.371582 
	C642.887207,734.205139 643.679871,732.356140 644.914734,731.987366 
	C651.181580,730.115173 657.588379,728.717651 663.892334,726.960693 
	C666.487366,726.237366 668.947632,725.030029 671.469238,724.042847 
	C663.913574,724.710388 656.947266,726.367920 649.954651,727.905334 
	C649.357056,728.036743 648.315857,727.567078 647.932739,727.044922 
	C641.959778,718.903748 634.029297,714.235535 623.380493,713.611938 
	C632.705200,708.201538 638.976929,710.346069 651.113831,722.159668 
	C649.643799,716.748169 648.242737,711.187805 645.483704,706.411926 
	C642.539490,701.315430 637.153076,699.021667 631.171631,698.356201 
	C635.700256,696.314575 639.865112,697.614685 643.141785,700.332214 
	C646.359680,703.001221 648.747253,706.671326 652.005005,710.495728 
	C652.005005,705.087524 652.847168,700.129150 651.809570,695.601562 
	C650.214294,688.640442 648.180725,681.506348 644.770508,675.304993 
	C640.654358,667.820068 634.239624,668.023071 630.070862,675.417236 
	C625.822937,682.951660 621.798889,690.779846 619.038208,698.940002 
	C616.001892,707.914795 614.517517,717.414734 612.212891,727.304077 
	C616.874817,725.783875 620.062683,724.744385 623.250488,723.704834 
	C623.500671,724.065491 623.750916,724.426147 624.001099,724.786743 
	C614.822266,729.257080 609.966919,735.522949 612.871155,746.265564 
	C614.974548,754.046326 617.914124,757.302124 625.884033,756.932495 
	C630.460754,756.720154 635.003479,755.772949 639.784180,755.126465 
	C641.532166,760.569580 645.297546,761.031860 650.028503,759.226624 
	C656.456482,756.773804 662.910400,754.386536 669.387939,752.068054 
	C670.503357,751.668823 671.787842,751.696350 673.000000,751.622559 
	C675.230042,751.486755 677.715271,752.014526 679.642090,751.198425 
	C683.104248,749.731995 686.232239,747.476624 690.015320,745.237610 
	C690.503601,744.624756 690.991882,744.011841 691.927002,742.806152 
	C692.287964,741.207031 692.648926,739.607910 693.600586,737.920471 
	C693.794861,737.593140 693.989136,737.265808 694.719055,736.894104 
M697.205139,724.174133 
	C696.274292,725.647705 695.343445,727.121216 694.395569,728.621643 
	C695.385498,729.385925 696.430786,730.192993 697.577209,731.078125 
	C698.016113,728.593323 698.381836,726.523132 698.968018,723.820984 
	C698.702576,722.825989 698.437134,721.831055 698.158203,720.128418 
	C705.327271,715.796631 712.528503,711.516907 719.648376,707.105591 
	C722.237305,705.501526 724.631836,703.583862 727.115112,701.809265 
	C726.838440,701.383850 726.561768,700.958435 726.285095,700.532959 
	C724.295837,701.461365 722.306580,702.389709 720.064636,703.055054 
	C720.064636,703.055054 719.816345,702.787903 720.101196,702.173889 
	C722.894714,699.810852 725.688232,697.447754 728.481750,695.084717 
	C728.085144,694.457581 727.688538,693.830444 727.291992,693.203308 
	C720.582153,696.921814 713.872375,700.640320 706.449707,704.753845 
	C707.581299,701.556763 708.324585,699.456848 709.067871,697.356934 
	C708.558411,697.021606 708.048950,696.686279 707.539551,696.350952 
	C706.436890,697.737366 705.302795,699.100098 704.237610,700.514771 
	C701.159973,704.602417 698.178711,708.764343 695.032898,712.798279 
	C690.585449,718.501221 688.360474,719.199463 681.441895,716.670776 
	C677.712219,715.307617 675.299316,716.295349 672.764893,720.813354 
	C675.104187,719.533325 676.239502,718.657959 677.519897,718.296265 
	C678.451782,718.033081 680.480591,718.438171 680.481995,718.562622 
	C680.526550,722.522705 683.517944,720.707214 685.212036,720.885071 
	C689.248291,721.308594 693.319214,721.402771 697.609558,722.148560 
	C697.674988,722.705750 697.740417,723.262878 697.205139,724.174133 
M744.277344,710.164612 
	C742.774170,712.571228 741.270996,714.977905 739.016846,718.586853 
	C739.016846,710.592590 739.016846,704.062256 739.016846,697.531921 
	C738.785400,697.519287 738.554016,697.506653 738.322571,697.494019 
	C737.629272,704.030945 736.936035,710.567932 736.176025,717.733643 
	C734.192078,715.839417 732.898743,714.604614 731.170776,712.798706 
	C730.498901,712.414978 729.826965,712.031250 729.155090,711.647522 
	C729.025146,711.839600 728.895203,712.031677 728.765198,712.223755 
	C729.462585,712.861877 730.159973,713.500061 730.988708,714.849426 
	C731.778381,716.055176 732.568054,717.260864 733.488647,718.666443 
	C730.995422,718.013062 728.799316,717.437500 726.603210,716.862000 
	C726.554138,717.059631 726.505066,717.257263 726.455994,717.454834 
	C727.479065,718.163330 728.502197,718.871826 730.335388,720.141235 
	C726.100525,720.141235 722.950745,720.141235 718.712952,720.141235 
	C723.821594,721.144409 727.853271,721.936035 731.885010,722.727722 
	C731.857178,723.041809 731.829407,723.355896 731.801636,723.669983 
	C728.662720,724.974792 725.523804,726.279663 722.384888,727.584534 
	C722.439270,727.809082 722.493652,728.033630 722.548096,728.258179 
	C725.210693,727.667297 727.873230,727.076416 731.142334,727.043030 
	C731.357910,727.213196 731.573486,727.383301 731.372742,728.112854 
	C729.525146,731.263977 727.677551,734.415100 725.830017,737.566223 
	C726.063538,737.707642 726.297119,737.849121 726.530701,737.990601 
	C729.086914,734.709106 731.643188,731.427612 734.199402,728.146057 
	C734.579346,728.349609 734.959290,728.553101 735.339233,728.756592 
	C734.706543,731.108215 734.073914,733.459778 733.441223,735.811340 
	C733.683044,735.958740 733.924866,736.106140 734.166687,736.253540 
	C735.027588,734.901489 735.888428,733.549500 737.004517,731.796631 
	C737.560120,734.905151 738.017517,737.464111 738.474915,740.023132 
	C738.679749,739.999207 738.884521,739.975342 739.089355,739.951416 
	C739.089355,737.258118 739.089355,734.564880 739.089355,731.871582 
	C739.307373,731.846680 739.525452,731.821777 739.743469,731.796814 
	C740.675354,735.129944 741.607239,738.463074 742.539124,741.796204 
	C742.848877,741.727051 743.158569,741.657959 743.468323,741.588806 
	C742.344604,736.179382 741.220825,730.769958 740.042358,725.096924 
	C743.194031,727.021118 745.951965,728.705017 748.709961,730.388855 
	C749.144348,729.859375 749.578674,729.329956 750.013062,728.800476 
	C747.827515,726.997314 745.642029,725.194214 742.906555,722.937378 
	C747.621460,722.937378 751.533569,722.937378 755.445679,722.937378 
	C755.469177,722.771179 755.492676,722.604919 755.516174,722.438721 
	C752.795898,721.884399 750.075623,721.330139 747.033081,720.710144 
	C749.356567,719.738342 751.248718,718.946899 753.845337,718.117615 
	C754.462097,717.962708 755.078918,717.807800 755.695740,717.652832 
	C755.659119,717.438660 755.622498,717.224426 755.585876,717.010193 
	C754.565063,717.106384 753.544189,717.202576 751.791992,717.606018 
	C749.959778,717.835999 748.127563,718.065918 745.876221,717.891418 
	C745.728088,717.765869 745.580017,717.640259 745.800110,716.949890 
	C747.162903,715.428406 748.525635,713.906982 749.888428,712.385498 
	C749.698486,712.200073 749.508484,712.014709 749.318542,711.829346 
	C748.026062,712.711914 746.733643,713.594482 744.850403,713.934570 
	C744.642517,713.766418 744.434631,713.598328 744.488464,712.816467 
	C744.898987,712.035034 745.309509,711.253601 745.957703,710.044800 
	C745.830627,709.608276 745.703491,709.171814 745.576355,708.735352 
	C745.359131,709.132080 745.141846,709.528809 744.277344,710.164612 
M695.770569,641.330750 
	C695.998474,641.118225 696.249451,640.924561 696.444153,640.685059 
	C696.536804,640.571167 696.522034,640.369995 696.555969,640.208374 
	C694.661438,639.853394 692.101501,640.142517 691.007751,639.012451 
	C688.559387,636.482788 686.144348,637.237793 683.945129,638.425049 
	C680.469299,640.301453 677.286255,642.720276 673.979370,644.909546 
	C674.219788,645.418152 674.460266,645.926758 674.700684,646.435364 
	C681.782166,644.947327 688.863708,643.459290 696.162903,642.741089 
	C689.310608,644.405945 682.519226,646.453247 675.577698,647.557373 
	C672.582458,648.033691 671.231079,649.410583 670.099915,651.626038 
	C663.994507,663.584839 662.101929,676.381897 663.106750,689.608582 
	C663.568665,695.688110 666.070923,701.063416 672.499268,702.873779 
	C682.854797,705.790039 692.758362,703.964294 702.031982,698.718994 
	C703.002136,698.170166 703.449097,696.696350 704.138733,695.651733 
	C699.962463,695.906860 696.400269,697.282410 692.752747,698.372253 
	C685.186035,700.632996 680.978271,699.113464 678.487732,692.885132 
	C674.840942,683.765503 674.939087,674.470581 678.507263,665.358704 
	C679.070129,663.921204 681.057495,662.540100 682.654480,662.094543 
	C690.237244,659.979126 697.992798,658.463196 705.527222,656.201843 
	C710.523071,654.702393 711.115967,652.526001 708.836487,648.136230 
	C706.394836,643.434204 700.580566,640.729126 695.770569,641.330750 
M668.098083,649.756165 
	C671.644836,643.342102 675.463928,637.205750 683.858521,635.321899 
	C673.223450,632.895630 667.427856,637.902283 663.846313,646.400452 
	C662.332275,649.992981 661.006592,653.709839 660.074280,657.488403 
	C659.312012,660.577698 658.739136,662.889343 654.728210,663.281311 
	C651.146423,663.631409 647.691895,665.283508 642.698792,666.816101 
	C653.510620,670.576721 656.177734,679.265381 659.894165,687.962219 
	C660.244019,674.483215 662.349121,662.103027 668.098083,649.756165 
M694.398010,689.011902 
	C708.918335,685.617188 710.779358,682.798828 709.865173,665.765930 
	C703.363586,667.722656 696.826477,669.690002 689.988464,671.747986 
	C689.988464,676.250305 689.731873,680.868408 690.151917,685.424072 
	C690.270874,686.714783 692.364441,687.823364 694.398010,689.011902 
M685.752441,671.363586 
	C683.759338,679.203491 684.639648,687.284241 687.160400,689.807678 
	C687.160400,683.286987 687.160400,676.094543 687.160400,668.588562 
	C686.709351,669.313477 686.336548,669.912598 685.752441,671.363586 
M688.512207,691.527161 
	C689.072144,692.052063 689.632141,692.576904 690.192078,693.101746 
	C690.408875,692.806519 690.625671,692.511292 690.842468,692.216064 
	C690.336487,692.094971 689.830505,691.973816 688.512207,691.527161 
M692.229492,730.184509 
	C692.405273,730.125977 692.581116,730.067444 692.756897,730.008972 
	C692.580322,729.952698 692.403748,729.896423 692.229492,730.184509 
 z" style="fill: rgb(255, 255, 255);"></path>
  <path opacity="1.000000" stroke="none" d="
M420.299194,711.016541 
	C411.712616,705.588318 408.873535,697.310974 408.868805,688.286621 
	C408.858795,669.191223 408.668152,650.023132 410.243652,631.025269 
	C411.296783,618.326538 419.283142,612.997986 432.060577,612.997925 
	C473.547028,612.997864 515.033752,613.070435 556.519714,612.931213 
	C564.246582,612.905273 570.096375,616.086792 572.773071,622.890442 
	C575.380127,629.516968 576.901733,636.725281 577.814270,643.817810 
	C578.636414,650.207642 577.987732,656.786682 577.987732,663.645508 
	C571.742126,663.645508 565.544983,663.645508 559.000000,663.645508 
	C559.000000,661.139893 559.124329,658.676331 558.975281,656.229370 
	C558.613647,650.290955 555.634766,647.105347 549.792236,646.568726 
	C546.649048,646.280090 543.469971,646.318726 540.307068,646.318665 
	C506.818329,646.317749 473.329620,646.327026 439.840881,646.361511 
	C430.616394,646.370972 427.968811,648.977051 428.009796,658.146179 
	C428.031281,662.960327 427.877716,667.849548 428.644592,672.568115 
	C429.706573,679.102600 431.361938,680.223145 438.023224,680.233948 
	C456.683533,680.264099 475.344055,680.200195 494.004425,680.159668 
	C515.663757,680.112671 537.325623,680.219238 558.980652,679.885559 
	C564.885803,679.794617 569.454163,681.915894 571.699219,686.802551 
	C574.475098,692.844482 577.467957,699.449463 577.657227,705.890747 
	C578.189392,724.002625 577.839478,742.182861 576.855042,760.282776 
	C576.121033,773.778076 567.401245,781.002991 554.094299,781.002991 
	C513.107666,781.002808 472.121063,781.002563 431.134430,781.001831 
	C418.987305,781.001587 409.935364,773.226562 409.136749,760.966370 
	C408.480072,750.885193 409.002808,740.727234 409.002808,730.298950 
	C414.669556,730.298950 420.916748,730.298950 427.368561,730.298950 
	C427.548737,732.441772 427.738739,734.709351 427.930176,736.976868 
	C428.631653,745.284302 432.451477,748.861267 441.231323,748.888733 
	C468.722046,748.974670 496.213135,748.936157 523.704102,748.951416 
	C531.368164,748.955627 539.032532,749.024170 546.696289,748.979980 
	C553.081360,748.943176 557.523315,745.264832 557.955994,738.966675 
	C558.363586,733.032654 558.367920,727.019104 557.903076,721.091309 
	C557.432678,715.091919 554.994629,713.008667 548.823181,712.965271 
	C523.666626,712.788330 498.508911,712.762878 473.351562,712.711365 
	C458.856384,712.681702 444.360046,712.798950 429.866608,712.638489 
	C426.796753,712.604553 423.737061,711.649658 420.299194,711.016541 
z" style="fill: rgb(255, 255, 255);"></path>
  <path opacity="1.000000" stroke="none" d="
M275.241028,634.738586 
	C302.987762,669.728271 330.490845,704.456726 357.993958,739.185242 
	C358.351257,739.083679 358.708557,738.982056 359.065857,738.880432 
	C359.065857,697.074524 359.065857,655.268616 359.065857,613.231689 
	C368.011871,613.231689 376.615265,613.231689 385.309418,613.231689 
	C385.309418,668.893860 385.309418,724.631958 385.309418,781.002258 
	C377.096832,781.002258 369.333862,781.131653 361.583740,780.874512 
	C360.296143,780.831787 358.801025,779.315002 357.845642,778.123474 
	C334.675262,749.226685 311.579865,720.269714 288.437775,691.350220 
	C277.967072,678.265564 267.425262,665.237732 256.392761,651.534546 
	C256.392761,694.994446 256.392761,737.662781 256.392761,780.670959 
	C248.113449,780.670959 239.908783,780.670959 231.820679,780.670959 
	C231.820679,724.951477 231.820679,669.328796 231.820679,613.008240 
	C240.318008,613.008240 248.570511,612.903809 256.814087,613.128174 
	C257.964478,613.159485 259.278809,614.640015 260.163177,615.735474 
	C265.167633,621.934631 270.064148,628.220825 275.241028,634.738586 
z" style="fill: rgb(255, 255, 255);"></path>
  <path opacity="1.000000" stroke="none" d="M 925.853 779.999 C 879.749 779.999 834.132 779.999 788.257 779.999 C 788.257 724.332 788.257 668.943 788.257 613.277 C 793.479 613.277 798.72 613.277 804.261 613.277 C 804.261 658.011 805.106 714.977 805.106 760.072 C 847.301 760.072 888.781 760.072 931.006 760.072 C 931.006 770.848 930.583 768.984 930.583 779.74 C 929.215 779.823 927.777 779.911 925.853 779.999 Z" style="fill: rgb(255, 255, 255);"></path>
  <path d="M 163.7 572.846 C 163.7 571.522 164.808 570.453 166.178 570.453 L 168.657 570.453 C 170.025 570.453 171.134 571.522 171.134 572.846 L 171.134 583.387 L 180.578 578.119 C 181.763 577.463 183.28 577.85 183.961 578.996 L 185.199 581.068 C 185.882 582.212 185.479 583.677 184.294 584.336 L 174.848 589.602 L 184.294 594.866 C 185.479 595.526 185.889 596.992 185.199 598.138 L 183.961 600.209 C 183.28 601.352 181.763 601.747 180.578 601.083 L 171.134 595.818 L 171.134 606.356 C 171.134 607.681 170.025 608.75 168.657 608.75 L 166.178 608.75 C 164.808 608.75 163.7 607.681 163.7 606.356 L 163.7 595.818 L 154.255 601.091 C 153.07 601.747 151.553 601.36 150.871 600.216 L 149.632 598.143 C 148.952 596.999 149.355 595.534 150.54 594.876 L 159.985 589.602 L 150.54 584.336 C 149.355 583.677 148.952 582.212 149.632 581.068 L 150.871 578.996 C 151.553 577.843 153.07 577.455 154.255 578.112 L 163.7 583.379 L 163.7 572.846 Z" style="stroke-width: 1; stroke: rgb(250, 245, 245); fill: rgb(255, 255, 255);"></path>
  <path d="M 178.837 601.068 C 178.305 588.895 167.61 578.315 154.02 578.315 C 140.437 578.315 130.164 588.582 129.419 600.548" stroke-linecap="round" stroke-linejoin="round" style="fill: rgba(0, 0, 0, 0); stroke-width: 4px; transform-box: fill-box; transform-origin: 50% 50%; stroke: rgb(255, 255, 255);" transform="matrix(0, -1, 1, 0, 0.000019, -0.000033)"></path>
  <path d="M 206.313 578.489 C 205.569 590.759 195.31 600.812 181.603 600.812 C 167.901 600.812 157.534 590.654 157.002 578.594" stroke-linecap="round" stroke-linejoin="round" style="fill: rgba(0, 0, 0, 0); stroke-width: 4px; transform-origin: 181.605px 589.703px; stroke: rgb(255, 255, 255);" transform="matrix(0, -1, 1, 0, 0.000017, 0.000009)"></path>
  <text style="fill: rgb(255, 255, 255); font-family: Arial, sans-serif; font-size: 28px; font-weight: 700; white-space: pre;" transform="matrix(1.857798, 0, 0, 1.883795, -727.940918, -531.111267)" x="833.34" y="674.695">SPA</text>
  <g>
    <g>
      <g>
        <g>
          <g>
            <g>
              <g>
                <g>
                  <g>
                    <g></g>
                  </g>
                </g>
              </g>
            </g>
          </g>
        </g>
      </g>
    </g>
  </g>
  <g>
    <g>
      <g>
        <g>
          <g>
            <g>
              <g>
                <g>
                  <g>
                    <g></g>
                  </g>
                </g>
              </g>
            </g>
          </g>
        </g>
      </g>
    </g>
  </g>
  <g>
    <g>
      <g>
        <g>
          <g>
            <g>
              <g>
                <g>
                  <g>
                    <g></g>
                  </g>
                </g>
              </g>
            </g>
          </g>
        </g>
      </g>
    </g>
  </g>
  <g>
    <g>
      <g>
        <g>
          <g>
            <g>
              <g>
                <g>
                  <g>
                    <g></g>
                  </g>
                </g>
              </g>
            </g>
          </g>
        </g>
      </g>
    </g>
  </g>
  <g>
    <g>
      <g>
        <g>
          <g>
            <g>
              <g>
                <g>
                  <g>
                    <g></g>
                  </g>
                </g>
              </g>
            </g>
          </g>
        </g>
      </g>
    </g>
  </g>
  <g>
    <g>
      <g>
        <g>
          <g>
            <g>
              <g>
                <g>
                  <g>
                    <g></g>
                  </g>
                </g>
              </g>
            </g>
          </g>
        </g>
      </g>
    </g>
  </g>
  <g>
    <g>
      <g>
        <g>
          <g>
            <g>
              <g>
                <g>
                  <g>
                    <g></g>
                  </g>
                </g>
              </g>
            </g>
          </g>
        </g>
      </g>
    </g>
  </g>
  <g>
    <g>
      <g>
        <g>
          <g>
            <g>
              <g>
                <g>
                  <g>
                    <g></g>
                  </g>
                </g>
              </g>
            </g>
          </g>
        </g>
      </g>
    </g>
  </g>
  <g>
    <g>
      <g>
        <g>
          <g>
            <g>
              <g>
                <g>
                  <g>
                    <g></g>
                  </g>
                </g>
              </g>
            </g>
          </g>
        </g>
      </g>
    </g>
  </g>
  <g>
    <g>
      <g>
        <g>
          <g>
            <g>
              <g>
                <g>
                  <g>
                    <g></g>
                  </g>
                </g>
              </g>
            </g>
          </g>
        </g>
      </g>
    </g>
  </g>
  <g>
    <g>
      <g>
        <g>
          <g>
            <g>
              <g>
                <g>
                  <g>
                    <g></g>
                  </g>
                </g>
              </g>
            </g>
          </g>
        </g>
      </g>
    </g>
  </g>
  <g>
    <g>
      <g>
        <g>
          <g>
            <g>
              <g>
                <g>
                  <g>
                    <g></g>
                  </g>
                </g>
              </g>
            </g>
          </g>
        </g>
      </g>
    </g>
  </g>
  <g>
    <g>
      <g>
        <g>
          <g>
            <g>
              <g>
                <g>
                  <g>
                    <g></g>
                  </g>
                </g>
              </g>
            </g>
          </g>
        </g>
      </g>
    </g>
  </g>
  <g>
    <g>
      <g>
        <g>
          <g>
            <g>
              <g>
                <g>
                  <g>
                    <g></g>
                  </g>
                </g>
              </g>
            </g>
          </g>
        </g>
      </g>
    </g>
  </g>
  <g>
    <g>
      <g>
        <g>
          <g>
            <g>
              <g>
                <g>
                  <g>
                    <g></g>
                  </g>
                </g>
              </g>
            </g>
          </g>
        </g>
      </g>
    </g>
  </g>
  <g>
    <g>
      <g>
        <g>
          <g>
            <g>
              <g>
                <g>
                  <g>
                    <g></g>
                  </g>
                </g>
              </g>
            </g>
          </g>
        </g>
      </g>
    </g>
  </g>
  <g>
    <g>
      <g>
        <g>
          <g>
            <g>
              <g>
                <g>
                  <g>
                    <g></g>
                  </g>
                </g>
              </g>
            </g>
          </g>
        </g>
      </g>
    </g>
  </g>
  <g>
    <g>
      <g>
        <g>
          <g>
            <g>
              <g>
                <g>
                  <g>
                    <g></g>
                  </g>
                </g>
              </g>
            </g>
          </g>
        </g>
      </g>
    </g>
  </g>
  <g>
    <g>
      <g>
        <g>
          <g>
            <g>
              <g>
                <g>
                  <g>
                    <g></g>
                  </g>
                </g>
              </g>
            </g>
          </g>
        </g>
      </g>
    </g>
  </g>
  <g>
    <g>
      <g>
        <g>
          <g>
            <g>
              <g>
                <g>
                  <g>
                    <g></g>
                  </g>
                </g>
              </g>
            </g>
          </g>
        </g>
      </g>
    </g>
  </g>
  <g>
    <g>
      <g>
        <g>
          <g>
            <g>
              <g>
                <g>
                  <g>
                    <g></g>
                  </g>
                </g>
              </g>
            </g>
          </g>
        </g>
      </g>
    </g>
  </g>
  <g>
    <g>
      <g>
        <g>
          <g>
            <g>
              <g>
                <g>
                  <g>
                    <g></g>
                  </g>
                </g>
              </g>
            </g>
          </g>
        </g>
      </g>
    </g>
  </g>
  <g>
    <g>
      <g>
        <g>
          <g>
            <g>
              <g>
                <g>
                  <g>
                    <g></g>
                  </g>
                </g>
              </g>
            </g>
          </g>
        </g>
      </g>
    </g>
  </g>
  <g>
    <g>
      <g>
        <g>
          <g>
            <g>
              <g>
                <g>
                  <g>
                    <g></g>
                  </g>
                </g>
              </g>
            </g>
          </g>
        </g>
      </g>
    </g>
  </g>
  <g>
    <g>
      <g>
        <g>
          <g>
            <g>
              <g>
                <g>
                  <g>
                    <g></g>
                  </g>
                </g>
              </g>
            </g>
          </g>
        </g>
      </g>
    </g>
  </g>
  <g>
    <g>
      <g>
        <g>
          <g>
            <g>
              <g>
                <g>
                  <g>
                    <g></g>
                  </g>
                </g>
              </g>
            </g>
          </g>
        </g>
      </g>
    </g>
  </g>
  <g transform="matrix(1, 0, 0, 1, -1.642678, -0.54756)">
    <g>
      <g>
        <g>
          <g>
            <g>
              <g>
                <g>
                  <g>
                    <g></g>
                  </g>
                </g>
              </g>
            </g>
          </g>
        </g>
      </g>
    </g>
  </g>
  <g transform="matrix(1, 0, 0, 1, -1.642678, -0.54756)">
    <g>
      <g>
        <g>
          <g>
            <g>
              <g>
                <g>
                  <g>
                    <g></g>
                  </g>
                </g>
              </g>
            </g>
          </g>
        </g>
      </g>
    </g>
  </g>
  <g transform="matrix(1, 0, 0, 1, -1.642678, -0.54756)">
    <g>
      <g>
        <g>
          <g>
            <g>
              <g>
                <g>
                  <g>
                    <g></g>
                  </g>
                </g>
              </g>
            </g>
          </g>
        </g>
      </g>
    </g>
  </g>
  <g transform="matrix(1, 0, 0, 1, -1.642678, -0.54756)">
    <g>
      <g>
        <g>
          <g>
            <g>
              <g>
                <g>
                  <g>
                    <g></g>
                  </g>
                </g>
              </g>
            </g>
          </g>
        </g>
      </g>
    </g>
  </g>
  <g transform="matrix(1, 0, 0, 1, -1.642678, -0.54756)">
    <g>
      <g>
        <g>
          <g>
            <g>
              <g>
                <g>
                  <g>
                    <g></g>
                  </g>
                </g>
              </g>
            </g>
          </g>
        </g>
      </g>
    </g>
  </g>
  <g transform="matrix(1, 0, 0, 1, -1.642678, -0.54756)">
    <g>
      <g>
        <g>
          <g>
            <g>
              <g>
                <g>
                  <g>
                    <g></g>
                  </g>
                </g>
              </g>
            </g>
          </g>
        </g>
      </g>
    </g>
  </g>
  <g transform="matrix(1, 0, 0, 1, -1.642678, -0.54756)"></g>
  <g transform="matrix(1, 0, 0, 1, -1.642678, -0.54756)">
    <g></g>
  </g>
  <g transform="matrix(1, 0, 0, 1, -1.642678, -0.54756)"></g>
  <g transform="matrix(1, 0, 0, 1, -1.642678, -0.54756)"></g>
  <g transform="matrix(1, 0, 0, 1, 18.069464, 4.928035)"></g>
  <path opacity="1.000000" stroke="none" d="M 176.392 777.042 C 159.125 776.599 143.249 772.326 130.642 759.198 C 122.083 750.286 118.116 739.195 117.264 726.978 C 115.36 699.661 122.724 674.142 132.269 649.143 C 132.833 647.669 134.666 646.227 136.205 645.707 C 154.919 639.397 173.686 633.255 192.446 627.091 C 194.087 626.551 195.773 626.159 197.759 625.609 C 192.952 633.212 188.364 640.466 183.441 648.064 C 182.214 649.928 181.273 651.418 180.442 652.972 C 175.192 662.793 169.717 672.497 164.831 682.508 C 162.154 687.992 160.472 693.993 158.368 699.772 C 154.652 709.979 152.497 720.436 154.16 731.382 C 156.676 747.953 164.17 760.919 179.705 767.72 C 182.53 768.956 185.668 769.432 188.975 770.304 C 195.207 772.456 201.134 774.51 207.339 773.905 C 198.287 774.851 189.45 775.526 180.618 776.263 C 179.198 776.382 177.801 776.776 176.392 777.042 Z" style="stroke-width: 1; fill: rgb(255, 255, 255);"></path>
  <path opacity="1.000000" stroke="none" d="M 188.662 770.258 C 185.668 769.432 182.53 768.956 179.705 767.72 C 164.17 760.919 156.676 747.953 154.16 731.382 C 152.497 720.436 154.652 709.979 158.368 699.772 C 160.472 693.993 162.154 687.992 164.831 682.508 C 169.717 672.497 175.192 662.793 180.442 652.972 C 181.273 651.418 182.214 649.928 183.383 648.357 C 191.465 646.26 199.269 644.214 207.442 642.07 C 203.12 648.009 199.087 653.548 194.594 659.315 C 194 659.826 193.867 660.11 193.734 660.395 C 193.734 660.395 193.701 660.236 193.506 660.362 C 191.707 663.41 190.169 666.374 188.485 669.248 C 175.644 691.157 164.936 713.777 166.544 740.397 C 166.717 743.263 167.275 746.354 168.55 748.854 C 173.194 757.969 179.484 765.601 188.662 770.258 Z" style="stroke-width: 1; fill: rgb(255, 255, 255);"></path>
  <path opacity="1.000000" stroke="none" d="M 188.975 770.304 C 179.484 765.601 173.194 757.969 168.55 748.854 C 167.275 746.354 166.717 743.263 166.544 740.397 C 164.936 713.777 175.644 691.157 188.485 669.248 C 190.169 666.374 191.707 663.41 193.585 660.366 C 194.436 660.575 195.136 661.312 195.575 661.173 C 201.003 659.448 206.394 657.596 212.958 655.384 C 209.561 659.953 206.823 663.597 204.126 667.272 C 190.639 685.64 181.173 705.958 176.738 728.593 C 175.137 736.764 174.764 745.086 177.345 753.212 C 181.112 765.072 192.315 772.506 207.171 773.088 C 207.539 773.318 207.556 773.655 207.556 773.655 C 201.134 774.51 195.207 772.456 188.975 770.304 Z" style="stroke-width: 1; fill: rgb(255, 255, 255);"></path>
</svg>