<svg xmlns:rdf="http://www.w3.org/1999/02/22-rdf-syntax-ns#" xmlns="http://www.w3.org/2000/svg" viewBox="4.573 33.359 466.218 98.243" width="600" version="1.1" xmlns:cc="http://creativecommons.org/ns#" height="174.79" xmlns:dc="http://purl.org/dc/elements/1.1/">
  <defs></defs>
  <g transform="translate(-58.086 -243.7)">
    <path d="m86.535 354.11c1.75 0.41015 4.7109 0.41015 7.1289 0.41015 18.703 0.12891 30.945-10.094 30.945-31.75 0-19.508-11.027-28.793-28.793-28.793-4.4375 0-7.5312 0.39843-9.2812 0.8125zm-20.449-73.85c7.5352-1.3476 17.355-2.0234 27.578-2.0234 17.352 0 28.656 2.8203 37.27 9.418 9.4141 6.9922 15.332 18.301 15.332 34.449 0 17.348-6.3203 29.316-14.934 36.715-9.543 7.9453-24.215 11.711-41.969 11.711-10.629 0-18.301-0.67578-23.277-1.3516z" fill="#f8b31c"></path>
    <path d="m215.95 348.46c0 8.6094 0.26954 15.602 0.53516 21.117h-17.758l-0.94531-9.2773h-0.40235c-2.5508 4.0352-8.7422 10.766-20.578 10.766-13.457 0-23.137-8.3477-23.137-28.664v-38.609h20.445v35.387c0 9.5508 3.0898 15.34 10.355 15.34 5.6523 0 9.0156-3.9023 10.23-7.1328 0.53515-1.207 0.80469-2.6953 0.80469-4.4414v-39.152h20.449z" fill="#f8b31c"></path>
    <path d="m257.89 356.4c8.0781 0 13.051-7.9375 13.051-19.781 0-9.6836-3.7656-19.641-13.051-19.641-9.6836 0-13.453 9.957-13.453 19.781 0 11.168 4.7148 19.641 13.32 19.641zm-0.40625 14.668c-19.23 0-34.031-12.656-34.031-33.914 0-21.254 13.992-34.84 35.246-34.84 20.047 0 33.5 13.863 33.5 33.766 0 23.953-17.09 34.988-34.574 34.988z" fill="#f8b31c"></path>
    <path d="m352.35 367.97c-3.6367 1.75-10.496 3.0977-18.301 3.0977-21.254 0-34.84-13.047-34.84-33.773 0-19.238 13.184-34.98 37.664-34.98 5.3867 0 11.301 0.94531 15.605 2.5586l-3.23 15.2c-2.4219-1.0742-6.0508-2.0195-11.434-2.0195-10.766 0-17.762 7.668-17.629 18.434 0 12.105 8.0742 18.566 18.027 18.566 4.8438 0 8.6133-0.8086 11.707-2.1524z" fill="#f8b31c"></path>
    <path d="m391.41 286.05v48.367c0 14.465 5.4805 21.82 15.207 21.82 9.9727 0 15.457-6.9766 15.457-21.82v-48.367h18.945v47.121c0 25.93-13.09 38.281-35.027 38.281-21.195 0-33.66-11.723-33.66-38.523v-46.879z" fill="#002138"></path>
    <path d="m516.12 367.71c-3.4883 1.7422-11.348 3.7422-21.57 3.7422-29.043 0-43.996-18.207-43.996-42.141 0-28.672 20.441-44.633 45.867-44.633 9.8438 0 17.336 1.9961 20.699 3.75l-3.8711 15.078c-3.8594-1.6172-9.2227-3.1172-15.953-3.1172-15.086 0-26.805 9.0976-26.805 27.797 0 16.832 9.9766 27.426 26.934 27.426 5.7266 0 12.09-1.2461 15.824-2.7344z" fill="#002138"></path>
  </g>
</svg>