<svg xmlns="http://www.w3.org/2000/svg" width="366" height="165" fill="transparent" xmlns:bx="https://boxy-svg.com" viewBox="-25.989 -8.825 1072.604 469.316">
  <defs>
    <view id="view-1" viewBox="-58.592 570.841 6.361 1.272">
      <title>View 1</title>
    </view>
  </defs>
  <bx:title>Escudo UdeC by Cr.conts</bx:title>
  <polygon points="0,0 366,0 366,266 0,266" style="fill: rgb(196, 191, 182);"></polygon>
  <circle cx="183" cy="266" r="183" style="fill: rgb(196, 191, 182);"></circle>
  <polygon points="6,6 360,6 360,266 6,266" style="fill: rgb(0, 57, 114);"></polygon>
  <circle cx="183" cy="266" r="177" style="fill: rgb(0, 57, 114);"></circle>
  <polygon points="90,90 276,90 276,266 90,266" style="fill: rgb(242, 170, 0);"></polygon>
  <circle cx="183" cy="266" r="93" style="fill: rgb(242, 170, 0);"></circle>
  <polygon points="167,169 199,169 201,173 165,173" style="fill: rgb(0, 57, 114);"></polygon>
  <polygon points="163,183 203,183 205,187 161,187" style="fill: rgb(0, 57, 114);"></polygon>
  <polygon points="166,196 200,196 195,215 171,215" style="fill: rgb(0, 57, 114);"></polygon>
  <polygon points="157,225 209,225 209,229 157,229" style="fill: rgb(0, 57, 114);"></polygon>
  <circle cx="157" cy="227" r="3.5" style="fill: rgb(0, 57, 114);"></circle>
  <circle cx="209" cy="227" r="3.5" style="fill: rgb(0, 57, 114);"></circle>
  <circle cx="183" cy="253" r="12" style="fill: rgb(0, 57, 114);"></circle>
  <circle cx="183" cy="342" r="4" style="fill: rgb(0, 57, 114);"></circle>
  <polygon points="171,253 195,253 183,346" style="fill: rgb(0, 57, 114);"></polygon>
  <polygon points="48,30 62.69466,75.22542 24.2236,47.27455 71.77642,47.27455 33.30537,75.22542 " style="fill:#C4BFB6;"></polygon>
  <polygon points="318,30 332.69466,75.22542 294.2236,47.27455 341.77642,47.27455 303.30537,75.22542 " style="fill:#C4BFB6;"></polygon>
  <polygon points="183,30 197.69466,75.22542 159.2236,47.27455 206.77642,47.27455 168.30537,75.22542 " style="fill:#C4BFB6;"></polygon>
  <polygon points="115.5,30 130.19466,75.22542 91.7236,47.27455 139.27642,47.27455 100.80537,75.22542 " style="fill:#C4BFB6;"></polygon>
  <polygon points="250.5,30 265.19466,75.22542 226.7236,47.27455 274.27642,47.27455 235.80537,75.22542 " style="fill:#C4BFB6;"></polygon>
  <polygon points="48,108 62.69466,153.22542 24.2236,125.27455 71.77642,125.27455 33.30537,153.22542 " style="fill:#C4BFB6;"></polygon>
  <polygon points="318,108 332.69466,153.22542 294.2236,125.27455 341.77642,125.27455 303.30537,153.22542 " style="fill:#C4BFB6;"></polygon>
  <path d="M 163 157 Q 153 150 158 131 Q 159 125 158 122 Q 163 124 167 133 Q 168 123 172 116 Q 176 109 178 101 Q 179 105 180 106 Q 182 113 180 120 Q 180 128 181 130 Q 182 122 191 110 Q 196 101 194 100 Q 199 104 197 120 Q 194 136 198 142 Q 202 133 207 128 Q 206 133 208 139 Q 212 148 205 157 z" style="fill: rgb(219, 36, 21);"></path>
  <path d="M 203 100 Q 207 112 203 124 Q 215 112 203 100 z" style="fill: rgb(219, 36, 21);"></path>
  <path style="opacity:1" d="M 322.5,231.5 C 326.262,235.703 328.429,240.703 329,246.5C 330.081,251.47 330.414,256.47 330,261.5C 314.51,270.656 302.843,283.323 295,299.5C 292.445,287.595 293.112,275.929 297,264.5C 297.748,262.668 298.748,261.001 300,259.5C 302.426,264.689 305.592,269.356 309.5,273.5C 309.209,257.978 313.542,243.978 322.5,231.5 Z" fill="#C4BFB6"></path>
  <path style="opacity:1" d="M 44.5,234.5 C 54.0491,245.347 57.7158,258.014 55.5,272.5C 49.1258,269.425 42.4591,267.925 35.5,268C 31.4189,273.809 29.2522,280.309 29,287.5C 20.3933,277.233 18.06,265.567 22,252.5C 22.6122,249.968 24.1122,249.135 26.5,250C 31.5801,252.451 35.7468,255.951 39,260.5C 39.3757,251.451 41.209,242.784 44.5,234.5 Z" fill="#C4BFB6"></path>
  <path style="opacity:1" d="M 68.5,254.5 C 70.2617,257.503 71.4283,260.837 72,264.5C 72.6565,272.523 72.4899,280.523 71.5,288.5C 67.1394,287.577 62.8061,287.577 58.5,288.5C 55.5243,293.585 53.0243,298.919 51,304.5C 44.0175,295.233 40.5175,284.9 40.5,273.5C 47.0578,275.446 53.0578,278.446 58.5,282.5C 59.093,272.094 62.4263,262.76 68.5,254.5 Z" fill="#C4BFB6"></path>
  <path style="opacity:1" d="M 342.5,264.5 C 344.846,275.666 342.679,286 336,295.5C 336.386,286.212 336.553,276.879 336.5,267.5C 339.089,267.539 341.089,266.539 342.5,264.5 Z" fill="#C4BFB6"></path>
  <path style="opacity:1" d="M 332.5,271.5 C 334.991,283.062 333.158,294.062 327,304.5C 324.772,307.64 322.105,310.306 319,312.5C 318.357,303.185 316.857,294.018 314.5,285C 321.074,281.219 327.074,276.719 332.5,271.5 Z" fill="#C4BFB6"></path>
  <path style="opacity:1" d="M 61.5,292.5 C 70.9453,304.822 76.2786,318.822 77.5,334.5C 73.1667,334.5 68.8333,334.5 64.5,334.5C 60.5338,320.708 59.5338,306.708 61.5,292.5 Z" fill="#C4BFB6"></path>
  <path style="opacity:1" d="M 306.5,294.5 C 307.496,294.414 308.329,294.748 309,295.5C 314.447,307.938 314.947,320.605 310.5,333.5C 304.355,335.619 298.021,336.619 291.5,336.5C 291.392,330.262 292.559,324.262 295,318.5C 298.588,310.326 302.421,302.326 306.5,294.5 Z" fill="#C4BFB6"></path>
  <path style="opacity:1" d="M 26.5,302.5 C 35.2644,303.477 43.431,306.144 51,310.5C 50.3333,319.167 50.3333,327.833 51,336.5C 41.4737,328.645 33.8071,319.312 28,308.5C 27.187,306.564 26.687,304.564 26.5,302.5 Z" fill="#C4BFB6"></path>
  <path style="opacity:1" d="M 334.5,301.5 C 336.771,317.642 331.271,330.642 318,340.5C 318.639,333.617 318.473,326.784 317.5,320C 324.444,314.895 330.11,308.728 334.5,301.5 Z" fill="#C4BFB6"></path>
  <path style="opacity:1" d="M 283.5,310.5 C 285.746,312.649 287.246,315.316 288,318.5C 288.499,323.823 288.666,329.156 288.5,334.5C 284.006,336.112 279.339,336.778 274.5,336.5C 275.795,327.243 278.795,318.576 283.5,310.5 Z" fill="#C4BFB6"></path>
  <path style="opacity:1" d="M 81.5,315.5 C 92.4556,319.122 99.7889,326.456 103.5,337.5C 99.1598,339.008 94.8264,340.175 90.5,341C 85.0787,333.33 82.0787,324.83 81.5,315.5 Z" fill="#C4BFB6"></path>
  <path style="opacity:1" d="M 262.5,338.5 C 266.995,343.904 268.995,350.237 268.5,357.5C 268.212,365.408 265.212,372.074 259.5,377.5C 253.235,374.287 246.569,372.454 239.5,372C 245.015,359.325 252.681,348.158 262.5,338.5 Z" fill="#C4BFB6"></path>
  <path style="opacity:1" d="M 49.5,340.5 C 63.258,340.399 76.9246,341.399 90.5,343.5C 89.582,351.905 91.2487,359.739 95.5,367C 82.168,365.33 70.168,360.33 59.5,352C 55.5615,348.571 52.2281,344.737 49.5,340.5 Z" fill="#C4BFB6"></path>
  <path style="opacity:1" d="M 273.5,341.5 C 287.398,341.212 301.065,342.879 314.5,346.5C 301.941,357.779 287.274,364.779 270.5,367.5C 271.797,359.174 271.797,350.84 270.5,342.5C 271.791,342.737 272.791,342.404 273.5,341.5 Z" fill="#C4BFB6"></path>
  <path style="opacity:1" d="M 99.5,347.5 C 111.746,350.622 121.079,357.622 127.5,368.5C 121.528,369.33 115.528,369.83 109.5,370C 108.5,370.5 107.5,371 106.5,371.5C 101.374,364.333 99.041,356.333 99.5,347.5 Z" fill="#C4BFB6"></path>
  <path style="opacity:1" d="M 233.5,362.5 C 234.496,362.414 235.329,362.748 236,363.5C 237.719,376.344 234.552,387.844 226.5,398C 237.147,398.331 246.814,401.498 255.5,407.5C 256.5,408.833 257.5,410.167 258.5,411.5C 247.373,416.127 236.04,416.627 224.5,413C 218.988,410.278 213.655,407.445 208.5,404.5C 204.314,405.046 200.314,406.213 196.5,408C 201.952,409.786 206.618,412.786 210.5,417C 208.208,418.29 206.208,419.957 204.5,422C 201.479,421.708 198.812,420.375 196.5,418C 192.392,415.612 188.059,413.779 183.5,412.5C 180.893,413.137 178.56,414.304 176.5,416C 172.333,419.5 168.167,423 164,426.5C 160.527,425.342 157.027,424.176 153.5,423C 159.398,417.266 165.731,412.099 172.5,407.5C 168.878,406.341 165.211,406.175 161.5,407C 142.125,416.025 124.125,414.025 107.5,401C 110.492,398.89 113.825,397.557 117.5,397C 127.859,396.495 138.193,396.495 148.5,397C 138.851,387.873 134.018,376.707 134,363.5C 151.551,369.88 162.051,382.214 165.5,400.5C 171.301,400.7 176.968,401.7 182.5,403.5C 191.093,401.115 199.76,399.115 208.5,397.5C 211.861,382.16 220.195,370.493 233.5,362.5 Z" fill="#C4BFB6"></path>
  <path style="opacity:1" d="M 288.5,365.5 C 293.544,365.173 298.544,365.506 303.5,366.5C 300.646,376.18 294.979,383.68 286.5,389C 284.956,390.187 283.289,390.52 281.5,390C 276.188,385.008 270.188,381.008 263.5,378C 270.836,371.665 279.169,367.499 288.5,365.5 Z" fill="#C4BFB6"></path>
  <path style="opacity:1" d="M 63.5,368.5 C 73.7977,366.931 83.4644,369.098 92.5,375C 87.6667,377.167 84.1667,380.667 82,385.5C 74.3585,381.355 68.1918,375.689 63.5,368.5 Z" fill="#C4BFB6"></path>
  <path style="opacity:1" d="M 102.5,378.5 C 113.647,377.374 124.314,379.041 134.5,383.5C 131.196,387.302 127.196,390.135 122.5,392C 111.279,394.528 100.279,393.861 89.5,390C 88.1667,389 86.8333,388 85.5,387C 90.719,383.105 96.3857,380.271 102.5,378.5 Z" fill="#C4BFB6"></path>
  <path style="opacity:1" d="M 238.5,381.5 C 251.734,380.973 263.734,384.473 274.5,392C 271.785,393.908 268.785,395.241 265.5,396C 255.874,397.244 246.208,397.744 236.5,397.5C 236.701,392.093 237.368,386.76 238.5,381.5 Z" fill="#C4BFB6"></path>
  <text style="fill: rgb(0, 0, 0); font-family: Arial, sans-serif; font-size: 28px; font-weight: 700; letter-spacing: -1.6px; white-space: pre;" transform="matrix(3.432427, 0, 0, 4.359287, -1381.829468, -213.664429)"><tspan x="513.266" y="92.13">Universidad</tspan><tspan x="513.266" dy="1em">​</tspan><tspan>de Concepción</tspan></text>
  <text style="font-size: 36px; font-family: Roboto; white-space: pre; stroke-width: 1;" x="101.006" y="316.84">color(srgb 40% 38.8% 36.1%)</text>
</svg>